<?xml version="1.0" encoding="UTF-8"?>
<svg width="8e3" height="340.8" version="1.1" viewBox="0 0 8e3 340.8" xmlns="http://www.w3.org/2000/svg" xmlns:cc="http://creativecommons.org/ns#" xmlns:dc="http://purl.org/dc/elements/1.1/" xmlns:rdf="http://www.w3.org/1999/02/22-rdf-syntax-ns#">
 <metadata>
  <rdf:RDF>
   <cc:Work rdf:about="">
    <dc:format>image/svg+xml</dc:format>
    <dc:type rdf:resource="http://purl.org/dc/dcmitype/StillImage"/>
    <dc:title/>
   </cc:Work>
  </rdf:RDF>
 </metadata>
 <polygon class="h" transform="translate(0,-79.6)" points="7508 146.1 7377.2 101.3 7052.3 186.6 6686.9 109.5 6283.1 195.4 5790.6 80 5165.9 165.4 4921.9 109.5 4556.5 186.6 4231.7 101.3 4100.9 146.1 4e3 106.6 4e3 107.1 3907.1 155.2 3815.7 92.5 3508 146.5 3377.2 101.7 3052.3 187 2686.9 109.9 2283.1 195.8 1790.6 80.4 1165.9 165.8 921.9 109.9 556.5 187 231.7 101.7 100.9 146.5 0 107.1 0 420.4 4e3 420 4e3 420 8e3 419.6 8e3 106.6 7907.1 154.8 7815.7 92.1"/>
 <polygon class="h_shading" transform="translate(0,-79.6)" points="231.8 101.3 335.2 208.1 557.1 186.6"/>
 <polygon class="h_shading" transform="translate(0,-79.6)" points="0 106.6 18.8 183.4 101 146.1"/>
 <polygon class="h_shading" transform="translate(0,-79.6)" points="921.8 109.5 1060 223.4 1166.1 165.4"/>
 <polygon class="h_shading" transform="translate(0,-79.6)" points="1790.6 80 1944.3 196.6 2091.6 150.5"/>
 <polygon class="h_shading" transform="translate(0,-79.6)" points="2686.7 109.5 2916.8 204.7 3052.6 186.6"/>
 <polygon class="h_shading" transform="translate(0,-79.6)" points="3377.1 101.3 3493.3 173.1 3508.1 146.1"/>
 <polygon class="h_shading" transform="translate(0,-79.6)" points="3907 154.8 3815.5 92.1 3883.9 184.9"/>
 <polygon class="h_shading" transform="translate(0,-79.6)" points="4231.8 100.9 4335.2 207.7 4557.1 186.2"/>
 <polygon class="h_shading" transform="translate(0,-79.6)" points="4e3 106.2 4018.8 183 4101 145.7"/>
 <polygon class="h_shading" transform="translate(0,-79.6)" points="4921.8 109 5060 222.9 5166.1 164.9"/>
 <polygon class="h_shading" transform="translate(0,-79.6)" points="5790.6 79.6 5944.3 196.2 6091.6 150.1"/>
 <polygon class="h_shading" transform="translate(0,-79.6)" points="6686.7 109 6916.8 204.3 7052.6 186.2"/>
 <polygon class="h_shading" transform="translate(0,-79.6)" points="7377.1 100.9 7493.3 172.7 7508.1 145.7"/>
 <polygon class="h_shading" transform="translate(0,-79.6)" points="7907 154.4 7815.5 91.7 7883.9 184.5"/>
</svg>
