<?xml version="1.0" encoding="UTF-8"?>
<svg width="8e3" height="360.2" version="1.1" viewBox="0 0 8e3 360.2" xmlns="http://www.w3.org/2000/svg" xmlns:cc="http://creativecommons.org/ns#" xmlns:dc="http://purl.org/dc/elements/1.1/" xmlns:rdf="http://www.w3.org/1999/02/22-rdf-syntax-ns#">
 <metadata>
  <rdf:RDF>
   <cc:Work rdf:about="">
    <dc:format>image/svg+xml</dc:format>
    <dc:type rdf:resource="http://purl.org/dc/dcmitype/StillImage"/>
    <dc:title/>
   </cc:Work>
  </rdf:RDF>
 </metadata>
 <polygon class="m" transform="translate(0,-59.8)" points="7416.6 128.7 7280.6 152.8 7187.6 92.4 7091.8 114.7 7010.9 80.4 6773.2 144.3 6703.3 143.4 6472.7 88.1 6431.7 105.4 6259.7 130.4 6088 118 5995.3 63.6 5905.4 116.3 5804.5 60.1 5804.5 59.8 5804.2 60 5804 59.8 5804 60.1 5703 116.3 5613.1 63.6 5557 90.7 5348.6 130.4 5176.8 105.4 5135.7 88.1 4835.1 144.3 4597.5 80.4 4496.1 114.7 4420.9 92.4 4327.8 152.8 4191.8 128.7 4e3 90 3769.2 126.3 3550.3 93.1 3416.6 128.7 3280.6 152.8 3187.6 92.4 3091.8 114.7 3010.9 80.4 2773.2 144.3 2703.3 143.4 2472.7 88.1 2431.7 105.4 2259.7 130.4 2088 118 1995.3 63.6 1905.4 116.3 1804.5 60.1 1804.5 59.8 1804.2 60 1804 59.8 1804 60.1 1703 116.3 1613.1 63.6 1557 90.7 1348.6 130.4 1176.8 105.4 1135.7 88.1 835.1 144.3 597.5 80.4 496.1 114.7 420.9 92.4 327.8 152.8 191.8 128.7 0 90 0 420 4e3 420 8e3 420 8e3 90 7769.2 126.3 7550.3 93.1"/>
 <polygon class="m_shading" transform="translate(0,-59.8)" points="420.9 92.4 485 165.8 496.1 114.7"/>
 <polygon class="m_shading" transform="translate(0,-59.8)" points="597.5 80.4 620.5 170.5 661.2 97.5"/>
 <polygon class="m_shading" transform="translate(0,-59.8)" points="1176.8 105.4 1135.7 88.1 1185.2 175.9"/>
 <path class="m_shading" d="m1682.4 117.7c0.7-2.7 20.8-61.2 20.8-61.2l-90-52.7c-0.1 0 68.5 116.6 69.2 113.9z"/>
 <polygon class="m_shading" transform="translate(0,-59.8)" points="1804 60.1 1871.4 171.5 1905.4 116.3"/>
 <polygon class="m_shading" transform="translate(0,-59.8)" points="1995.3 63.6 2073.4 150.2 2088 118"/>
 <polygon class="m_shading" transform="translate(0,-59.8)" points="2472.7 88.1 2549.4 147.3 2639 127.9"/>
 <polygon class="m_shading" transform="translate(0,-59.8)" points="3187.6 92.4 3257.9 160.9 3280.8 152.8"/>
 <polygon class="m_shading" transform="translate(0,-59.8)" points="3010.9 80.4 3068.4 128.1 3091.8 114.7"/>
 <polygon class="m_shading" transform="translate(0,-59.8)" points="3769.2 126.3 3550.3 93.1 3730.2 145.8"/>
 <polygon class="m_shading" transform="translate(0,-59.8)" points="4420.9 92.4 4485 165.8 4496.1 114.7"/>
 <polygon class="m_shading" transform="translate(0,-59.8)" points="4597.5 80.4 4620.5 170.5 4661.2 97.5"/>
 <polygon class="m_shading" transform="translate(0,-59.8)" points="5176.8 105.4 5135.7 88.1 5185.2 175.9"/>
 <path class="m_shading" d="m5682.4 117.7c0.7-2.7 20.8-61.2 20.8-61.2l-90-52.7c-0.1 0 68.5 116.6 69.2 113.9z"/>
 <polygon class="m_shading" transform="translate(0,-59.8)" points="5804 60.1 5871.4 171.5 5905.4 116.3"/>
 <polygon class="m_shading" transform="translate(0,-59.8)" points="5995.3 63.6 6073.4 150.2 6088 118"/>
 <polygon class="m_shading" transform="translate(0,-59.8)" points="6472.7 88.1 6549.4 147.3 6639 127.9"/>
 <polygon class="m_shading" transform="translate(0,-59.8)" points="7187.6 92.4 7257.9 160.9 7280.8 152.8"/>
 <polygon class="m_shading" transform="translate(0,-59.8)" points="7010.9 80.4 7068.4 128.1 7091.8 114.7"/>
 <polygon class="m_shading" transform="translate(0,-59.8)" points="7769.2 126.3 7550.3 93.1 7730.2 145.8"/>
 <polygon class="m_trees" transform="translate(0,-59.8)" points="84.9 103.7 83.7 107.1 87.5 107.1 87.5 109.9 88.5 110.6 89.5 109.9 89.5 107.1 93.3 107.1 92.1 103.7 93.3 103.7 88.5 89.9 83.7 103.7"/>
 <polygon class="m_trees" transform="translate(0,-59.8)" points="16.4 89.5 15.1 92.9 18.9 92.9 18.9 95.6 20 96.4 21 95.6 21 92.9 24.8 92.9 23.6 89.5 24.8 89.5 20 75.7 15.1 89.5"/>
 <polygon class="m_trees" transform="translate(0,-59.8)" points="223.3 136.3 222.1 139.7 225.9 139.7 225.9 142.4 227 143.2 228 142.4 228 139.7 231.8 139.7 230.6 136.3 231.8 136.3 227 122.5 222.1 136.3"/>
 <polygon class="m_trees" transform="translate(0,-59.8)" points="344.4 149.2 343.2 152.6 347 152.6 347 155.3 348 156.1 349 155.3 349 152.6 352.9 152.6 351.6 149.2 352.9 149.2 348 135.4 343.2 149.2"/>
 <polygon class="m_trees" transform="translate(0,-59.8)" points="514 123 513.3 125 515.5 125 515.5 126.5 516.1 127 516.7 126.5 516.7 125 518.9 125 518.2 123 518.9 123 516.1 115.1 513.3 123"/>
 <polygon class="m_trees" transform="translate(0,-59.8)" points="594.1 158.9 593.4 160.9 595.6 160.9 595.6 162.4 596.2 162.9 596.8 162.4 596.8 160.9 598.9 160.9 598.2 158.9 598.9 158.9 596.2 151 593.4 158.9"/>
 <polygon class="m_trees" transform="translate(0,-59.8)" points="680.6 121.5 679.9 123.5 682.1 123.5 682.1 125 682.7 125.4 683.3 125 683.3 123.5 685.5 123.5 684.8 121.5 685.5 121.5 682.7 113.6 679.9 121.5"/>
 <polygon class="m_trees" transform="translate(0,-59.8)" points="752.4 120.5 751.7 122.5 753.9 122.5 753.9 124 754.5 124.4 755.1 124 755.1 122.5 757.3 122.5 756.6 120.5 757.3 120.5 754.5 112.6 751.7 120.5"/>
 <polygon class="m_trees" transform="translate(0,-59.8)" points="861.8 135.7 860.8 138.5 863.9 138.5 863.9 140.8 864.8 141.4 865.6 140.8 865.6 138.5 868.7 138.5 867.8 135.7 868.7 135.7 864.8 124.4 860.8 135.7"/>
 <polygon class="m_trees" transform="translate(0,-59.8)" points="1107.6 91.6 1106.6 94.5 1109.7 94.5 1109.7 96.7 1110.6 97.3 1111.4 96.7 1111.4 94.5 1114.5 94.5 1113.6 91.6 1114.5 91.6 1110.6 80.4 1106.6 91.6"/>
 <polygon class="m_trees" transform="translate(0,-59.8)" points="1344.6 126.3 1343.6 129.1 1346.7 129.1 1346.7 131.4 1347.6 132 1348.4 131.4 1348.4 129.1 1351.6 129.1 1350.6 126.3 1351.6 126.3 1347.6 115 1343.6 126.3"/>
 <polygon class="m_trees" transform="translate(0,-59.8)" points="1536.1 81.3 1532.2 92.6 1533.1 92.6 1532.2 95.4 1535.3 95.4 1535.3 97.7 1536.1 98.3 1537 97.7 1537 95.4 1540.1 95.4 1539.1 92.6 1540.1 92.6"/>
 <polygon class="m_trees" transform="translate(0,-59.8)" points="994.7 157.2 994 159.1 996.2 159.1 996.2 160.7 996.8 161.1 997.4 160.7 997.4 159.1 999.5 159.1 998.9 157.2 999.5 157.2 996.8 149.3 994 157.2"/>
 <polygon class="m_trees" transform="translate(0,-59.8)" points="1066.6 118.5 1065.9 120.5 1068 120.5 1068 122 1068.6 122.5 1069.3 122 1069.3 120.5 1071.4 120.5 1070.7 118.5 1071.4 118.5 1068.6 110.6 1065.9 118.5"/>
 <polygon class="m_trees" transform="translate(0,-59.8)" points="1152.2 157.9 1151.5 159.8 1153.6 159.8 1153.6 161.4 1154.2 161.8 1154.8 161.4 1154.8 159.8 1157 159.8 1156.3 157.9 1157 157.9 1154.2 150 1151.5 157.9"/>
 <polygon class="m_trees" transform="translate(0,-59.8)" points="1198.3 118.5 1197.6 120.5 1199.8 120.5 1199.8 122 1200.4 122.5 1201 122 1201 120.5 1203.2 120.5 1202.5 118.5 1203.2 118.5 1200.4 110.6 1197.6 118.5"/>
 <polygon class="m_trees" transform="translate(0,-59.8)" points="1337.3 146 1336.6 148 1338.8 148 1338.8 149.5 1339.4 150 1340 149.5 1340 148 1342.2 148 1341.5 146 1342.2 146 1339.4 138.1 1336.6 146"/>
 <polygon class="m_trees" transform="translate(0,-59.8)" points="1417 160.2 1416.3 162.2 1418.5 162.2 1418.5 163.8 1419.1 164.2 1419.7 163.8 1419.7 162.2 1421.9 162.2 1421.2 160.2 1421.9 160.2 1419.1 152.3 1416.3 160.2"/>
 <polygon class="m_trees" transform="translate(0,-59.8)" points="1540.8 157.9 1540.1 159.8 1542.3 159.8 1542.3 161.4 1542.9 161.8 1543.5 161.4 1543.5 159.8 1545.7 159.8 1545 157.9 1545.7 157.9 1542.9 150 1540.1 157.9"/>
 <polygon class="m_trees" transform="translate(0,-59.8)" points="1490.8 124.3 1490.1 126.3 1492.3 126.3 1492.3 127.8 1492.9 128.2 1493.5 127.8 1493.5 126.3 1495.7 126.3 1495 124.3 1495.7 124.3 1492.9 116.4 1490.1 124.3"/>
 <polygon class="m_trees" transform="translate(0,-59.8)" points="1587.5 103.5 1586.8 105.5 1589 105.5 1589 107 1589.6 107.5 1590.2 107 1590.2 105.5 1592.4 105.5 1591.7 103.5 1592.4 103.5 1589.6 95.6 1586.8 103.5"/>
 <polygon class="m_trees" transform="translate(0,-59.8)" points="1609.8 76.1 1609.1 78 1611.3 78 1611.3 79.6 1611.9 80 1612.5 79.6 1612.5 78 1614.6 78 1613.9 76.1 1614.6 76.1 1611.9 68.2 1609.1 76.1"/>
 <polygon class="m_trees" transform="translate(0,-59.8)" points="1637.4 141.8 1636.7 143.8 1638.9 143.8 1638.9 145.3 1639.5 145.8 1640.1 145.3 1640.1 143.8 1642.2 143.8 1641.6 141.8 1642.2 141.8 1639.5 133.9 1636.7 141.8"/>
 <polygon class="m_trees" transform="translate(0,-59.8)" points="1721.2 126.3 1720.5 128.3 1722.7 128.3 1722.7 129.8 1723.3 130.3 1723.9 129.8 1723.9 128.3 1726 128.3 1725.3 126.3 1726 126.3 1723.3 118.4 1720.5 126.3"/>
 <polygon class="m_trees" transform="translate(0,-59.8)" points="1795.3 80.6 1794.6 82.6 1796.8 82.6 1796.8 84.1 1797.4 84.6 1798 84.1 1798 82.6 1800.2 82.6 1799.5 80.6 1800.2 80.6 1797.4 72.7 1794.6 80.6"/>
 <polygon class="m_trees" transform="translate(0,-59.8)" points="1833.6 156.2 1832.9 158.2 1835.1 158.2 1835.1 159.8 1835.7 160.2 1836.3 159.8 1836.3 158.2 1838.5 158.2 1837.8 156.2 1838.5 156.2 1835.7 148.3 1832.9 156.2"/>
 <polygon class="m_trees" transform="translate(0,-59.8)" points="1917.2 131.3 1916.5 133.3 1918.7 133.3 1918.7 134.8 1919.3 135.3 1919.9 134.8 1919.9 133.3 1922 133.3 1921.4 131.3 1922 131.3 1919.3 123.4 1916.5 131.3"/>
 <polygon class="m_trees" transform="translate(0,-59.8)" points="1992.4 87.4 1991.7 89.4 1993.9 89.4 1993.9 90.9 1994.5 91.4 1995.1 90.9 1995.1 89.4 1997.3 89.4 1996.6 87.4 1997.3 87.4 1994.5 79.5 1991.7 87.4"/>
 <polygon class="m_trees" transform="translate(0,-59.8)" points="2035.1 152.1 2034.4 154.1 2036.6 154.1 2036.6 155.6 2037.2 156.1 2037.8 155.6 2037.8 154.1 2040 154.1 2039.3 152.1 2040 152.1 2037.2 144.2 2034.4 152.1"/>
 <polygon class="m_trees" transform="translate(0,-59.8)" points="2112.7 134.3 2112 136.3 2114.2 136.3 2114.2 137.9 2114.8 138.3 2115.4 137.9 2115.4 136.3 2117.5 136.3 2116.9 134.3 2117.5 134.3 2114.8 126.4 2112 134.3"/>
 <polygon class="m_trees" transform="translate(0,-59.8)" points="2298.8 121.4 2298.1 123.4 2300.3 123.4 2300.3 124.9 2300.9 125.4 2301.5 124.9 2301.5 123.4 2303.7 123.4 2303 121.4 2303.7 121.4 2300.9 113.5 2298.1 121.4"/>
 <polygon class="m_trees" transform="translate(0,-59.8)" points="2392.8 108.6 2392.1 110.6 2394.3 110.6 2394.3 112.1 2394.9 112.6 2395.5 112.1 2395.5 110.6 2397.7 110.6 2397 108.6 2397.7 108.6 2394.9 100.7 2392.1 108.6"/>
 <polygon class="m_trees" transform="translate(0,-59.8)" points="2461.2 91.5 2460.5 93.4 2462.7 93.4 2462.7 95 2463.3 95.4 2463.9 95 2463.9 93.4 2466.1 93.4 2465.4 91.5 2466.1 91.5 2463.3 83.6 2460.5 91.5"/>
 <polygon class="m_trees" transform="translate(0,-59.8)" points="2346.6 157.9 2345.9 159.8 2348.1 159.8 2348.1 161.4 2348.7 161.8 2349.3 161.4 2349.3 159.8 2351.5 159.8 2350.8 157.9 2351.5 157.9 2348.7 150 2345.9 157.9"/>
 <polygon class="m_trees" transform="translate(0,-59.8)" points="2609.8 157.1 2609.1 159.1 2611.2 159.1 2611.2 160.6 2611.8 161.1 2612.4 160.6 2612.4 159.1 2614.6 159.1 2613.9 157.1 2614.6 157.1 2611.8 149.2 2609.1 157.1"/>
 <polygon class="m_trees" transform="translate(0,-59.8)" points="2498.6 151.2 2497.9 153.1 2500.1 153.1 2500.1 154.7 2500.7 155.1 2501.3 154.7 2501.3 153.1 2503.5 153.1 2502.8 151.2 2503.5 151.2 2500.7 143.3 2497.9 151.2"/>
 <polygon class="m_trees" transform="translate(0,-59.8)" points="2682.2 139.3 2681.6 141.3 2683.7 141.3 2683.7 142.8 2684.3 143.3 2684.9 142.8 2684.9 141.3 2687.1 141.3 2686.4 139.3 2687.1 139.3 2684.3 131.4 2681.6 139.3"/>
 <polygon class="m_trees" transform="translate(0,-59.8)" points="2769.6 143.3 2768.9 145.3 2771.1 145.3 2771.1 146.8 2771.7 147.3 2772.3 146.8 2772.3 145.3 2774.5 145.3 2773.8 143.3 2774.5 143.3 2771.7 135.4 2768.9 143.3"/>
 <polygon class="m_trees" transform="translate(0,-59.8)" points="2874.2 162.4 2873.5 164.4 2875.7 164.4 2875.7 165.9 2876.3 166.4 2876.9 165.9 2876.9 164.4 2879.1 164.4 2878.4 162.4 2879.1 162.4 2876.3 154.5 2873.5 162.4"/>
 <polygon class="m_trees" transform="translate(0,-59.8)" points="2900.5 108.7 2899.8 110.7 2902 110.7 2902 112.2 2902.6 112.7 2903.2 112.2 2903.2 110.7 2905.4 110.7 2904.7 108.7 2905.4 108.7 2902.6 100.8 2899.8 108.7"/>
 <polygon class="m_trees" transform="translate(0,-59.8)" points="2980.2 125.3 2979.5 127.3 2981.7 127.3 2981.7 128.9 2982.3 129.3 2982.9 128.9 2982.9 127.3 2985.1 127.3 2984.4 125.3 2985.1 125.3 2982.3 117.4 2979.5 125.3"/>
 <polygon class="m_trees" transform="translate(0,-59.8)" points="3149.6 102.8 3148.9 104.7 3151.1 104.7 3151.1 106.3 3151.7 106.7 3152.3 106.3 3152.3 104.7 3154.4 104.7 3153.7 102.8 3154.4 102.8 3151.7 94.9 3148.9 102.8"/>
 <polygon class="m_trees" transform="translate(0,-59.8)" points="3188.2 157.9 3187.6 159.8 3189.7 159.8 3189.7 161.4 3190.3 161.8 3190.9 161.4 3190.9 159.8 3193 159.8 3192.3 157.9 3193 157.9 3190.3 150 3187.6 157.9"/>
 <polygon class="m_trees" transform="translate(0,-59.8)" points="3461.8 151.9 3461.1 153.9 3463.2 153.9 3463.2 155.5 3463.8 155.9 3464.5 155.5 3464.5 153.9 3466.6 153.9 3465.9 151.9 3466.6 151.9 3463.8 144 3461.1 151.9"/>
 <polygon class="m_trees" transform="translate(0,-59.8)" points="3628.7 146 3628 148 3630.2 148 3630.2 149.5 3630.8 150 3631.4 149.5 3631.4 148 3633.6 148 3632.9 146 3633.6 146 3630.8 138.1 3628 146"/>
 <polygon class="m_trees" transform="translate(0,-59.8)" points="3809.6 140.1 3808.9 142 3811 142 3811 143.6 3811.6 144 3812.2 143.6 3812.2 142 3814.3 142 3813.6 140.1 3814.3 140.1 3811.6 132.2 3808.9 140.1"/>
 <polygon class="m_trees" transform="translate(0,-59.8)" points="3925.2 146 3924.5 148 3926.7 148 3926.7 149.5 3927.3 150 3927.9 149.5 3927.9 148 3930.1 148 3929.4 146 3930.1 146 3927.3 138.1 3924.5 146"/>
 <polygon class="m_trees" transform="translate(0,-59.8)" points="3972.2 112.2 3972.9 112.2 3972.2 114.1 3974.4 114.1 3974.4 115.7 3975 116.1 3975.6 115.7 3975.6 114.1 3977.8 114.1 3977.1 112.2 3977.8 112.2 3975 104.2"/>
 <polygon class="m_trees" transform="translate(0,-59.8)" points="3333.5 143.3 3332.8 145.3 3335 145.3 3335 146.8 3335.6 147.3 3336.2 146.8 3336.2 145.3 3338.4 145.3 3337.7 143.3 3338.4 143.3 3335.6 135.4 3332.8 143.3"/>
 <polygon class="m_trees" transform="translate(0,-59.8)" points="3513 106.2 3512.3 108.2 3514.5 108.2 3514.5 109.7 3515.1 110.2 3515.7 109.7 3515.7 108.2 3517.8 108.2 3517.2 106.2 3517.8 106.2 3515.1 98.3 3512.3 106.2"/>
 <polygon class="m_trees" transform="translate(0,-59.8)" points="1768.9 148.4 1768.2 150.4 1770.4 150.4 1770.4 151.9 1771 152.4 1771.6 151.9 1771.6 150.4 1773.8 150.4 1773.1 148.4 1773.8 148.4 1771 140.5 1768.2 148.4"/>
 <polygon class="m_trees" transform="translate(0,-59.8)" points="591 92.4 588.2 100.3 588.9 100.3 588.2 102.2 590.4 102.2 590.4 103.8 591 104.2 591.6 103.8 591.6 102.2 593.8 102.2 593.1 100.3 593.8 100.3"/>
 <polygon class="m_trees" transform="translate(0,-59.8)" points="547.4 147.7 546.7 149.7 548.9 149.7 548.9 151.3 549.5 151.7 550.1 151.3 550.1 149.7 552.3 149.7 551.6 147.7 552.3 147.7 549.5 139.8 546.7 147.7"/>
 <polygon class="m_trees" transform="translate(0,-59.8)" points="3876.1 107.7 3874.9 111.1 3878.7 111.1 3878.7 113.8 3879.8 114.6 3880.8 113.8 3880.8 111.1 3884.6 111.1 3883.4 107.7 3884.6 107.7 3879.8 93.9 3874.9 107.7"/>
 <polygon class="m_trees" transform="translate(0,-59.8)" points="3381.7 130.1 3380.5 133.5 3384.3 133.5 3384.3 136.2 3385.4 137 3386.4 136.2 3386.4 133.5 3390.2 133.5 3389 130.1 3390.2 130.1 3385.4 116.3 3380.5 130.1"/>
 <polygon class="m_trees" transform="translate(0,-59.8)" points="2185.4 124 2184.2 127.5 2187.9 127.5 2187.9 130.2 2189 130.9 2190 130.2 2190 127.5 2193.8 127.5 2192.6 124 2193.8 124 2189 110.3 2184.2 124"/>
 <polygon class="m_trees" transform="translate(0,-59.8)" points="4084.9 103.7 4083.7 107.1 4087.5 107.1 4087.5 109.9 4088.5 110.6 4089.5 109.9 4089.5 107.1 4093.3 107.1 4092.1 103.7 4093.3 103.7 4088.5 89.9 4083.7 103.7"/>
 <polygon class="m_trees" transform="translate(0,-59.8)" points="4016.4 89.5 4015.1 92.9 4018.9 92.9 4018.9 95.6 4020 96.4 4021 95.6 4021 92.9 4024.8 92.9 4023.6 89.5 4024.8 89.5 4020 75.7 4015.1 89.5"/>
 <polygon class="m_trees" transform="translate(0,-59.8)" points="4223.3 136.3 4222.1 139.7 4225.9 139.7 4225.9 142.4 4227 143.2 4228 142.4 4228 139.7 4231.8 139.7 4230.6 136.3 4231.8 136.3 4227 122.5 4222.1 136.3"/>
 <polygon class="m_trees" transform="translate(0,-59.8)" points="4344.4 149.2 4343.2 152.6 4347 152.6 4347 155.3 4348 156.1 4349 155.3 4349 152.6 4352.9 152.6 4351.6 149.2 4352.9 149.2 4348 135.4 4343.2 149.2"/>
 <polygon class="m_trees" transform="translate(0,-59.8)" points="4514 123 4513.3 125 4515.5 125 4515.5 126.5 4516.1 127 4516.7 126.5 4516.7 125 4518.9 125 4518.2 123 4518.9 123 4516.1 115.1 4513.3 123"/>
 <polygon class="m_trees" transform="translate(0,-59.8)" points="4594.1 158.9 4593.4 160.9 4595.6 160.9 4595.6 162.4 4596.2 162.9 4596.8 162.4 4596.8 160.9 4598.9 160.9 4598.2 158.9 4598.9 158.9 4596.2 151 4593.4 158.9"/>
 <polygon class="m_trees" transform="translate(0,-59.8)" points="4680.6 121.5 4679.9 123.5 4682.1 123.5 4682.1 125 4682.7 125.4 4683.3 125 4683.3 123.5 4685.5 123.5 4684.8 121.5 4685.5 121.5 4682.7 113.6 4679.9 121.5"/>
 <polygon class="m_trees" transform="translate(0,-59.8)" points="4752.4 120.5 4751.7 122.5 4753.9 122.5 4753.9 124 4754.5 124.4 4755.1 124 4755.1 122.5 4757.3 122.5 4756.6 120.5 4757.3 120.5 4754.5 112.6 4751.7 120.5"/>
 <polygon class="m_trees" transform="translate(0,-59.8)" points="4861.8 135.7 4860.8 138.5 4863.9 138.5 4863.9 140.8 4864.8 141.4 4865.6 140.8 4865.6 138.5 4868.7 138.5 4867.8 135.7 4868.7 135.7 4864.8 124.4 4860.8 135.7"/>
 <polygon class="m_trees" transform="translate(0,-59.8)" points="5107.6 91.6 5106.6 94.5 5109.7 94.5 5109.7 96.7 5110.6 97.3 5111.4 96.7 5111.4 94.5 5114.5 94.5 5113.6 91.6 5114.5 91.6 5110.6 80.4 5106.6 91.6"/>
 <polygon class="m_trees" transform="translate(0,-59.8)" points="5344.6 126.3 5343.6 129.1 5346.7 129.1 5346.7 131.4 5347.6 132 5348.4 131.4 5348.4 129.1 5351.6 129.1 5350.6 126.3 5351.6 126.3 5347.6 115 5343.6 126.3"/>
 <polygon class="m_trees" transform="translate(0,-59.8)" points="5536.1 81.3 5532.2 92.6 5533.1 92.6 5532.2 95.4 5535.3 95.4 5535.3 97.7 5536.1 98.3 5537 97.7 5537 95.4 5540.1 95.4 5539.1 92.6 5540.1 92.6"/>
 <polygon class="m_trees" transform="translate(0,-59.8)" points="4994.7 157.2 4994 159.1 4996.2 159.1 4996.2 160.7 4996.8 161.1 4997.4 160.7 4997.4 159.1 4999.5 159.1 4998.9 157.2 4999.5 157.2 4996.8 149.3 4994 157.2"/>
 <polygon class="m_trees" transform="translate(0,-59.8)" points="5066.6 118.5 5065.9 120.5 5068 120.5 5068 122 5068.6 122.5 5069.3 122 5069.3 120.5 5071.4 120.5 5070.7 118.5 5071.4 118.5 5068.6 110.6 5065.9 118.5"/>
 <polygon class="m_trees" transform="translate(0,-59.8)" points="5152.2 157.9 5151.5 159.8 5153.6 159.8 5153.6 161.4 5154.2 161.8 5154.8 161.4 5154.8 159.8 5157 159.8 5156.3 157.9 5157 157.9 5154.2 150 5151.5 157.9"/>
 <polygon class="m_trees" transform="translate(0,-59.8)" points="5198.3 118.5 5197.6 120.5 5199.8 120.5 5199.8 122 5200.4 122.5 5201 122 5201 120.5 5203.2 120.5 5202.5 118.5 5203.2 118.5 5200.4 110.6 5197.6 118.5"/>
 <polygon class="m_trees" transform="translate(0,-59.8)" points="5337.3 146 5336.6 148 5338.8 148 5338.8 149.5 5339.4 150 5340 149.5 5340 148 5342.2 148 5341.5 146 5342.2 146 5339.4 138.1 5336.6 146"/>
 <polygon class="m_trees" transform="translate(0,-59.8)" points="5417 160.2 5416.3 162.2 5418.5 162.2 5418.5 163.8 5419.1 164.2 5419.7 163.8 5419.7 162.2 5421.9 162.2 5421.2 160.2 5421.9 160.2 5419.1 152.3 5416.3 160.2"/>
 <polygon class="m_trees" transform="translate(0,-59.8)" points="5540.8 157.9 5540.1 159.8 5542.3 159.8 5542.3 161.4 5542.9 161.8 5543.5 161.4 5543.5 159.8 5545.7 159.8 5545 157.9 5545.7 157.9 5542.9 150 5540.1 157.9"/>
 <polygon class="m_trees" transform="translate(0,-59.8)" points="5490.8 124.3 5490.1 126.3 5492.3 126.3 5492.3 127.8 5492.9 128.2 5493.5 127.8 5493.5 126.3 5495.7 126.3 5495 124.3 5495.7 124.3 5492.9 116.4 5490.1 124.3"/>
 <polygon class="m_trees" transform="translate(0,-59.8)" points="5587.5 103.5 5586.8 105.5 5589 105.5 5589 107 5589.6 107.5 5590.2 107 5590.2 105.5 5592.4 105.5 5591.7 103.5 5592.4 103.5 5589.6 95.6 5586.8 103.5"/>
 <polygon class="m_trees" transform="translate(0,-59.8)" points="5609.8 76.1 5609.1 78 5611.3 78 5611.3 79.6 5611.9 80 5612.5 79.6 5612.5 78 5614.6 78 5613.9 76.1 5614.6 76.1 5611.9 68.2 5609.1 76.1"/>
 <polygon class="m_trees" transform="translate(0,-59.8)" points="5637.4 141.8 5636.7 143.8 5638.9 143.8 5638.9 145.3 5639.5 145.8 5640.1 145.3 5640.1 143.8 5642.2 143.8 5641.6 141.8 5642.2 141.8 5639.5 133.9 5636.7 141.8"/>
 <polygon class="m_trees" transform="translate(0,-59.8)" points="5721.2 126.3 5720.5 128.3 5722.7 128.3 5722.7 129.8 5723.3 130.3 5723.9 129.8 5723.9 128.3 5726 128.3 5725.3 126.3 5726 126.3 5723.3 118.4 5720.5 126.3"/>
 <polygon class="m_trees" transform="translate(0,-59.8)" points="5795.3 80.6 5794.6 82.6 5796.8 82.6 5796.8 84.1 5797.4 84.6 5798 84.1 5798 82.6 5800.2 82.6 5799.5 80.6 5800.2 80.6 5797.4 72.7 5794.6 80.6"/>
 <polygon class="m_trees" transform="translate(0,-59.8)" points="5833.6 156.2 5832.9 158.2 5835.1 158.2 5835.1 159.8 5835.7 160.2 5836.3 159.8 5836.3 158.2 5838.5 158.2 5837.8 156.2 5838.5 156.2 5835.7 148.3 5832.9 156.2"/>
 <polygon class="m_trees" transform="translate(0,-59.8)" points="5917.2 131.3 5916.5 133.3 5918.7 133.3 5918.7 134.8 5919.3 135.3 5919.9 134.8 5919.9 133.3 5922 133.3 5921.4 131.3 5922 131.3 5919.3 123.4 5916.5 131.3"/>
 <polygon class="m_trees" transform="translate(0,-59.8)" points="5992.4 87.4 5991.7 89.4 5993.9 89.4 5993.9 90.9 5994.5 91.4 5995.1 90.9 5995.1 89.4 5997.3 89.4 5996.6 87.4 5997.3 87.4 5994.5 79.5 5991.7 87.4"/>
 <polygon class="m_trees" transform="translate(0,-59.8)" points="6035.1 152.1 6034.4 154.1 6036.6 154.1 6036.6 155.6 6037.2 156.1 6037.8 155.6 6037.8 154.1 6040 154.1 6039.3 152.1 6040 152.1 6037.2 144.2 6034.4 152.1"/>
 <polygon class="m_trees" transform="translate(0,-59.8)" points="6112.7 134.3 6112 136.3 6114.2 136.3 6114.2 137.9 6114.8 138.3 6115.4 137.9 6115.4 136.3 6117.5 136.3 6116.9 134.3 6117.5 134.3 6114.8 126.4 6112 134.3"/>
 <polygon class="m_trees" transform="translate(0,-59.8)" points="6298.8 121.4 6298.1 123.4 6300.3 123.4 6300.3 124.9 6300.9 125.4 6301.5 124.9 6301.5 123.4 6303.7 123.4 6303 121.4 6303.7 121.4 6300.9 113.5 6298.1 121.4"/>
 <polygon class="m_trees" transform="translate(0,-59.8)" points="6392.8 108.6 6392.1 110.6 6394.3 110.6 6394.3 112.1 6394.9 112.6 6395.5 112.1 6395.5 110.6 6397.7 110.6 6397 108.6 6397.7 108.6 6394.9 100.7 6392.1 108.6"/>
 <polygon class="m_trees" transform="translate(0,-59.8)" points="6461.2 91.5 6460.5 93.4 6462.7 93.4 6462.7 95 6463.3 95.4 6463.9 95 6463.9 93.4 6466.1 93.4 6465.4 91.5 6466.1 91.5 6463.3 83.6 6460.5 91.5"/>
 <polygon class="m_trees" transform="translate(0,-59.8)" points="6346.6 157.9 6345.9 159.8 6348.1 159.8 6348.1 161.4 6348.7 161.8 6349.3 161.4 6349.3 159.8 6351.5 159.8 6350.8 157.9 6351.5 157.9 6348.7 150 6345.9 157.9"/>
 <polygon class="m_trees" transform="translate(0,-59.8)" points="6609.8 157.1 6609.1 159.1 6611.2 159.1 6611.2 160.6 6611.8 161.1 6612.4 160.6 6612.4 159.1 6614.6 159.1 6613.9 157.1 6614.6 157.1 6611.8 149.2 6609.1 157.1"/>
 <polygon class="m_trees" transform="translate(0,-59.8)" points="6498.6 151.2 6497.9 153.1 6500.1 153.1 6500.1 154.7 6500.7 155.1 6501.3 154.7 6501.3 153.1 6503.5 153.1 6502.8 151.2 6503.5 151.2 6500.7 143.3 6497.9 151.2"/>
 <polygon class="m_trees" transform="translate(0,-59.8)" points="6682.2 139.3 6681.6 141.3 6683.7 141.3 6683.7 142.8 6684.3 143.3 6684.9 142.8 6684.9 141.3 6687.1 141.3 6686.4 139.3 6687.1 139.3 6684.3 131.4 6681.6 139.3"/>
 <polygon class="m_trees" transform="translate(0,-59.8)" points="6769.6 143.3 6768.9 145.3 6771.1 145.3 6771.1 146.8 6771.7 147.3 6772.3 146.8 6772.3 145.3 6774.5 145.3 6773.8 143.3 6774.5 143.3 6771.7 135.4 6768.9 143.3"/>
 <polygon class="m_trees" transform="translate(0,-59.8)" points="6874.2 162.4 6873.5 164.4 6875.7 164.4 6875.7 165.9 6876.3 166.4 6876.9 165.9 6876.9 164.4 6879.1 164.4 6878.4 162.4 6879.1 162.4 6876.3 154.5 6873.5 162.4"/>
 <polygon class="m_trees" transform="translate(0,-59.8)" points="6900.5 108.7 6899.8 110.7 6902 110.7 6902 112.2 6902.6 112.7 6903.2 112.2 6903.2 110.7 6905.4 110.7 6904.7 108.7 6905.4 108.7 6902.6 100.8 6899.8 108.7"/>
 <polygon class="m_trees" transform="translate(0,-59.8)" points="6980.2 125.3 6979.5 127.3 6981.7 127.3 6981.7 128.9 6982.3 129.3 6982.9 128.9 6982.9 127.3 6985.1 127.3 6984.4 125.3 6985.1 125.3 6982.3 117.4 6979.5 125.3"/>
 <polygon class="m_trees" transform="translate(0,-59.8)" points="7149.6 102.8 7148.9 104.7 7151.1 104.7 7151.1 106.3 7151.7 106.7 7152.3 106.3 7152.3 104.7 7154.4 104.7 7153.7 102.8 7154.4 102.8 7151.7 94.9 7148.9 102.8"/>
 <polygon class="m_trees" transform="translate(0,-59.8)" points="7188.2 157.9 7187.6 159.8 7189.7 159.8 7189.7 161.4 7190.3 161.8 7190.9 161.4 7190.9 159.8 7193 159.8 7192.3 157.9 7193 157.9 7190.3 150 7187.6 157.9"/>
 <polygon class="m_trees" transform="translate(0,-59.8)" points="7461.8 151.9 7461.1 153.9 7463.2 153.9 7463.2 155.5 7463.8 155.9 7464.5 155.5 7464.5 153.9 7466.6 153.9 7465.9 151.9 7466.6 151.9 7463.8 144 7461.1 151.9"/>
 <polygon class="m_trees" transform="translate(0,-59.8)" points="7628.7 146 7628 148 7630.2 148 7630.2 149.5 7630.8 150 7631.4 149.5 7631.4 148 7633.6 148 7632.9 146 7633.6 146 7630.8 138.1 7628 146"/>
 <polygon class="m_trees" transform="translate(0,-59.8)" points="7809.6 140.1 7808.9 142 7811 142 7811 143.6 7811.6 144 7812.2 143.6 7812.2 142 7814.3 142 7813.6 140.1 7814.3 140.1 7811.6 132.2 7808.9 140.1"/>
 <polygon class="m_trees" transform="translate(0,-59.8)" points="7925.2 146 7924.5 148 7926.7 148 7926.7 149.5 7927.3 150 7927.9 149.5 7927.9 148 7930.1 148 7929.4 146 7930.1 146 7927.3 138.1 7924.5 146"/>
 <polygon class="m_trees" transform="translate(0,-59.8)" points="7972.2 112.2 7972.9 112.2 7972.2 114.1 7974.4 114.1 7974.4 115.7 7975 116.1 7975.6 115.7 7975.6 114.1 7977.8 114.1 7977.1 112.2 7977.8 112.2 7975 104.2"/>
 <polygon class="m_trees" transform="translate(0,-59.8)" points="7333.5 143.3 7332.8 145.3 7335 145.3 7335 146.8 7335.6 147.3 7336.2 146.8 7336.2 145.3 7338.4 145.3 7337.7 143.3 7338.4 143.3 7335.6 135.4 7332.8 143.3"/>
 <polygon class="m_trees" transform="translate(0,-59.8)" points="7513 106.2 7512.3 108.2 7514.5 108.2 7514.5 109.7 7515.1 110.2 7515.7 109.7 7515.7 108.2 7517.8 108.2 7517.2 106.2 7517.8 106.2 7515.1 98.3 7512.3 106.2"/>
 <polygon class="m_trees" transform="translate(0,-59.8)" points="5768.9 148.4 5768.2 150.4 5770.4 150.4 5770.4 151.9 5771 152.4 5771.6 151.9 5771.6 150.4 5773.8 150.4 5773.1 148.4 5773.8 148.4 5771 140.5 5768.2 148.4"/>
 <polygon class="m_trees" transform="translate(0,-59.8)" points="4591 92.4 4588.2 100.3 4588.9 100.3 4588.2 102.2 4590.4 102.2 4590.4 103.8 4591 104.2 4591.6 103.8 4591.6 102.2 4593.8 102.2 4593.1 100.3 4593.8 100.3"/>
 <polygon class="m_trees" transform="translate(0,-59.8)" points="4547.4 147.7 4546.7 149.7 4548.9 149.7 4548.9 151.3 4549.5 151.7 4550.1 151.3 4550.1 149.7 4552.3 149.7 4551.6 147.7 4552.3 147.7 4549.5 139.8 4546.7 147.7"/>
 <polygon class="m_trees" transform="translate(0,-59.8)" points="7876.1 107.7 7874.9 111.1 7878.7 111.1 7878.7 113.8 7879.8 114.6 7880.8 113.8 7880.8 111.1 7884.6 111.1 7883.4 107.7 7884.6 107.7 7879.8 93.9 7874.9 107.7"/>
 <polygon class="m_trees" transform="translate(0,-59.8)" points="7381.7 130.1 7380.5 133.5 7384.3 133.5 7384.3 136.2 7385.4 137 7386.4 136.2 7386.4 133.5 7390.2 133.5 7389 130.1 7390.2 130.1 7385.4 116.3 7380.5 130.1"/>
 <polygon class="m_trees" transform="translate(0,-59.8)" points="6185.4 124 6184.2 127.5 6187.9 127.5 6187.9 130.2 6189 130.9 6190 130.2 6190 127.5 6193.8 127.5 6192.6 124 6193.8 124 6189 110.3 6184.2 124"/>
</svg>
