<?xml version="1.0" encoding="UTF-8"?>
<svg style="transform:translate3d(-2248.14px, 0px, 0px)" version="1.1" viewBox="0 0 8e3 420" xmlns="http://www.w3.org/2000/svg" xmlns:cc="http://creativecommons.org/ns#" xmlns:dc="http://purl.org/dc/elements/1.1/" xmlns:rdf="http://www.w3.org/1999/02/22-rdf-syntax-ns#">
 <metadata>
  <rdf:RDF>
   <cc:Work rdf:about="">
    <dc:format>image/svg+xml</dc:format>
    <dc:type rdf:resource="http://purl.org/dc/dcmitype/StillImage"/>
    <dc:title/>
   </cc:Work>
  </rdf:RDF>
 </metadata>
 <path class="t" d="m1007.4 285.1c-0.9-1.2-1.9-2.2-2.9-3.3 0.1 0 1.8-1.6 1.1-2.4-0.9-1.1-3.1-3.3-3.3-3.5 0.2-0.1 2.3-1.7 1.3-2.9-0.9-1-3.4-3.1-3.6-3.3 1.7-0.8 2.1-1.5 1.2-3.1-1.5-2.9-6-10.3-6.7-11-0.4-0.5-0.8-0.8-1.2-0.8s-0.8 0.2-1.2 0.8c-0.7 0.8-5.2 8.1-6.7 11-0.8 1.6-0.4 2.3 1.2 3.1-0.2 0.2-2.7 2.3-3.6 3.3-1 1.2 1.1 2.8 1.3 2.9-0.2 0.1-2.4 2.3-3.3 3.5-0.7 0.8 1 2.4 1.1 2.4-1 1.1-2 2.2-2.9 3.3-0.7 1-0.6 1.6 0.3 2.4 2 1.2 4.8 1.9 6.9 2.1 1.7 0.2 3.4 0.3 5.2 0.4-0.1 1.6-0.2 3.1-0.4 4.6 0.7 0 1.4 0.9 2.1 0.9s1.4-0.9 2.1-0.9c-0.1-1.5-0.2-3-0.4-4.6 1.8-0.1 3.5-0.2 5.2-0.4 2.1-0.2 4.9-0.9 6.9-2.1 0.9-0.8 1-1.5 0.3-2.4z"/>
 <path class="t" d="m1226.4 201.2c-0.3-0.4-0.7-0.8-1.1-1.2 0 0 0.7-0.6 0.4-0.9-0.3-0.4-1.1-1.2-1.2-1.3 0.1 0 0.8-0.6 0.5-1.1-0.3-0.4-1.2-1.1-1.3-1.2 0.6-0.3 0.8-0.5 0.4-1.1-0.6-1.1-2.2-3.8-2.5-4-0.2-0.2-0.3-0.3-0.4-0.3s-0.3 0.1-0.4 0.3c-0.2 0.3-1.9 3-2.5 4-0.3 0.6-0.2 0.9 0.4 1.1-0.1 0.1-1 0.8-1.3 1.2-0.4 0.4 0.4 1 0.5 1.1-0.1 0-0.9 0.9-1.2 1.3-0.2 0.3 0.4 0.9 0.4 0.9-0.4 0.4-0.7 0.8-1.1 1.2-0.3 0.3-0.2 0.6 0.1 0.9 0.7 0.4 1.8 0.7 2.5 0.8 0.6 0.1 1.2 0.1 1.9 0.2 0 0.6-0.1 1.1-0.1 1.7 0.3 0 0.5 0.3 0.8 0.3s0.5-0.3 0.8-0.3c0-0.6-0.1-1.1-0.1-1.7 0.6-0.1 1.3-0.1 1.9-0.2 0.8-0.1 1.8-0.3 2.5-0.8 0.3-0.3 0.4-0.6 0.1-0.9z"/>
 <path class="t" d="m1586.4 162.8c-0.4-0.5-0.9-1-1.3-1.5 0.1 0 0.8-0.7 0.5-1.1-0.4-0.5-1.4-1.5-1.5-1.6 0.1-0.1 1.1-0.8 0.6-1.3-0.4-0.5-1.5-1.4-1.7-1.5 0.8-0.3 0.9-0.7 0.6-1.4-0.7-1.3-2.8-4.7-3.1-5.1-0.2-0.2-0.4-0.4-0.6-0.3-0.2 0-0.4 0.1-0.6 0.3-0.3 0.4-2.4 3.8-3.1 5.1-0.4 0.7-0.2 1.1 0.6 1.4-0.1 0.1-1.3 1.1-1.7 1.5-0.5 0.6 0.5 1.3 0.6 1.3-0.1 0.1-1.1 1.1-1.5 1.6-0.3 0.4 0.5 1.1 0.5 1.1-0.5 0.5-0.9 1-1.3 1.5-0.3 0.4-0.3 0.7 0.1 1.1 0.9 0.6 2.2 0.9 3.2 1 0.8 0.1 1.6 0.1 2.4 0.2-0.1 0.7-0.1 1.4-0.2 2.1 0.3 0 0.6 0.4 1 0.4 0.3 0 0.6-0.4 1-0.4-0.1-0.7-0.1-1.4-0.2-2.1 0.8-0.1 1.6-0.1 2.4-0.2 1-0.1 2.3-0.4 3.2-1 0.4-0.4 0.4-0.7 0.1-1.1z"/>
 <path class="t" d="m1744.9 138.2c-0.4-0.5-0.9-1-1.3-1.5 0.1 0 0.8-0.7 0.5-1.1-0.4-0.5-1.4-1.5-1.5-1.6 0.1-0.1 1.1-0.8 0.6-1.3-0.4-0.5-1.5-1.4-1.7-1.5 0.8-0.3 0.9-0.7 0.6-1.4-0.7-1.3-2.8-4.7-3.1-5.1-0.2-0.2-0.4-0.4-0.6-0.3-0.2 0-0.4 0.1-0.6 0.3-0.3 0.4-2.4 3.8-3.1 5.1-0.4 0.7-0.2 1.1 0.6 1.4-0.1 0.1-1.3 1.1-1.7 1.5-0.5 0.6 0.5 1.3 0.6 1.3-0.1 0.1-1.1 1.1-1.5 1.6-0.3 0.4 0.5 1.1 0.5 1.1-0.5 0.5-0.9 1-1.3 1.5-0.3 0.4-0.3 0.7 0.1 1.1 0.9 0.6 2.2 0.9 3.2 1 0.8 0.1 1.6 0.1 2.4 0.2-0.1 0.7-0.1 1.4-0.2 2.1 0.3 0 0.6 0.4 1 0.4 0.3 0 0.6-0.4 1-0.4-0.1-0.7-0.1-1.4-0.2-2.1 0.8-0.1 1.6-0.1 2.4-0.2 1-0.1 2.3-0.4 3.2-1 0.4-0.4 0.4-0.7 0.1-1.1z"/>
 <path class="t" d="m1913 253.6c-0.4-0.5-0.9-1-1.3-1.5 0.1 0 0.8-0.7 0.5-1.1-0.4-0.5-1.4-1.5-1.5-1.6 0.1-0.1 1.1-0.8 0.6-1.3-0.4-0.5-1.5-1.4-1.7-1.5 0.8-0.3 0.9-0.7 0.6-1.4-0.7-1.3-2.8-4.7-3.1-5.1-0.2-0.2-0.4-0.4-0.6-0.3-0.2 0-0.4 0.1-0.6 0.3-0.3 0.4-2.4 3.8-3.1 5.1-0.4 0.7-0.2 1.1 0.6 1.4-0.1 0.1-1.3 1.1-1.7 1.5-0.5 0.6 0.5 1.3 0.6 1.3-0.1 0.1-1.1 1.1-1.5 1.6-0.3 0.4 0.5 1.1 0.5 1.1-0.5 0.5-0.9 1-1.3 1.5-0.3 0.4-0.3 0.7 0.1 1.1 0.9 0.6 2.2 0.9 3.2 1 0.8 0.1 1.6 0.1 2.4 0.2-0.1 0.7-0.1 1.4-0.2 2.1 0.3 0 0.6 0.4 1 0.4 0.3 0 0.6-0.4 1-0.4-0.1-0.7-0.1-1.4-0.2-2.1 0.8-0.1 1.6-0.1 2.4-0.2 1-0.1 2.3-0.4 3.2-1 0.4-0.3 0.4-0.6 0.1-1.1z"/>
 <path class="t" d="m2204.7 268.2c-0.8-1.1-1.8-2.1-2.7-3.1 0.1 0 1.7-1.5 1-2.3-0.8-1.1-2.9-3.1-3.1-3.3 0.2-0.1 2.2-1.6 1.2-2.7-0.8-1-3.2-2.9-3.4-3.1 1.6-0.7 1.9-1.4 1.1-2.9-1.5-2.7-5.7-9.7-6.3-10.4-0.4-0.5-0.8-0.7-1.1-0.7-0.4 0-0.7 0.2-1.1 0.7-0.6 0.7-4.9 7.7-6.3 10.4-0.8 1.5-0.4 2.2 1.1 2.9-0.2 0.2-2.6 2.2-3.4 3.1-1 1.1 1 2.6 1.2 2.7-0.2 0.1-2.3 2.2-3.1 3.3-0.6 0.8 0.9 2.2 1 2.3-0.9 1.1-1.9 2.1-2.7 3.1-0.7 0.9-0.6 1.5 0.3 2.2 1.8 1.1 4.6 1.8 6.5 2 1.6 0.2 3.2 0.3 4.9 0.4-0.1 1.5-0.2 2.9-0.3 4.3 0.7 0 1.3 0.8 2 0.8 0.6 0 1.3-0.8 2-0.8-0.1-1.4-0.2-2.9-0.3-4.3 1.7-0.1 3.3-0.2 4.9-0.4 1.9-0.2 4.7-0.8 6.5-2 0.7-0.7 0.8-1.3 0.1-2.2z"/>
 <path class="t" d="m2424.4 213.3c-0.6-0.7-1.3-1.3-2-2 0.1 0 1.2-0.9 0.8-1.4-0.6-0.7-2.1-2-2.3-2.1 0.1-0.1 1.6-1 0.9-1.7-0.6-0.6-2.3-1.9-2.5-2 1.1-0.5 1.4-0.9 0.8-1.8-1.1-1.7-4.2-6.1-4.6-6.6-0.3-0.3-0.6-0.5-0.8-0.4-0.3 0-0.5 0.1-0.8 0.4-0.5 0.5-3.6 4.9-4.6 6.6-0.6 1-0.3 1.4 0.8 1.8-0.2 0.1-1.9 1.4-2.5 2-0.7 0.7 0.7 1.6 0.9 1.7-0.1 0.1-1.7 1.4-2.3 2.1-0.5 0.5 0.7 1.4 0.8 1.4-0.7 0.7-1.4 1.3-2 2-0.5 0.6-0.4 0.9 0.2 1.4 1.3 0.7 3.3 1.1 4.7 1.2 1.2 0.1 2.3 0.2 3.5 0.2-0.1 0.9-0.2 1.8-0.2 2.7 0.5 0 1 0.5 1.4 0.5 0.5 0 0.9-0.5 1.4-0.5-0.1-0.9-0.2-1.8-0.2-2.7 1.2-0.1 2.4-0.1 3.5-0.2 1.4-0.1 3.4-0.5 4.7-1.2 0.8-0.5 0.9-0.9 0.4-1.4z"/>
 <path class="t" d="m2629.3 163.5c-0.5-0.7-1.1-1.3-1.7-2 0.1 0 1.1-0.9 0.7-1.4-0.5-0.7-1.8-2-1.9-2.1 0.1-0.1 1.4-1 0.8-1.7-0.5-0.6-2-1.9-2.1-2 1-0.5 1.2-0.9 0.7-1.8-0.9-1.7-3.5-6.1-3.9-6.6-0.3-0.3-0.5-0.5-0.7-0.4-0.2 0-0.5 0.1-0.7 0.4-0.4 0.5-3 4.9-3.9 6.6-0.5 1-0.3 1.4 0.7 1.8-0.1 0.1-1.6 1.4-2.1 2-0.6 0.7 0.6 1.6 0.8 1.7-0.1 0.1-1.4 1.4-1.9 2.1-0.4 0.5 0.6 1.4 0.7 1.4-0.6 0.7-1.2 1.3-1.7 2-0.4 0.6-0.4 0.9 0.2 1.4 1.2 0.7 2.8 1.1 4.1 1.2 1 0.1 2 0.2 3 0.2-0.1 0.9-0.1 1.8-0.2 2.7 0.4 0 0.8 0.5 1.2 0.5s0.8-0.5 1.2-0.5c-0.1-0.9-0.1-1.8-0.2-2.7 1-0.1 2-0.1 3-0.2 1.2-0.1 2.9-0.5 4.1-1.2 0.1-0.5 0.2-0.9-0.2-1.4z"/>
 <path class="t" d="m2757.8 217.2c-0.4-0.5-0.9-1.1-1.4-1.6 0.1 0 0.8-0.7 0.5-1.2-0.4-0.5-1.5-1.6-1.5-1.7 0.1-0.1 1.1-0.8 0.6-1.4-0.4-0.5-1.6-1.5-1.7-1.6 0.8-0.4 1-0.7 0.6-1.5-0.7-1.4-2.8-4.9-3.1-5.3-0.2-0.2-0.4-0.4-0.6-0.4s-0.4 0.1-0.6 0.4c-0.3 0.4-2.4 3.9-3.1 5.3-0.4 0.8-0.2 1.1 0.6 1.5-0.1 0.1-1.3 1.1-1.7 1.6-0.5 0.6 0.5 1.3 0.6 1.4-0.1 0.1-1.1 1.1-1.5 1.7-0.3 0.4 0.5 1.1 0.5 1.2-0.5 0.5-0.9 1-1.4 1.6-0.3 0.5-0.3 0.8 0.1 1.1 0.9 0.6 2.3 0.9 3.2 1 0.8 0.1 1.6 0.1 2.4 0.2-0.1 0.7-0.1 1.5-0.2 2.2 0.3 0 0.7 0.4 1 0.4s0.6-0.4 1-0.4c-0.1-0.7-0.1-1.4-0.2-2.2 0.8-0.1 1.6-0.1 2.4-0.2 1-0.1 2.3-0.4 3.2-1 0.6-0.3 0.6-0.6 0.3-1.1z"/>
 <path class="t" d="m2903.3 258.7c-0.9-1.2-1.9-2.3-2.9-3.4 0.1-0.1 1.8-1.6 1.1-2.5-0.9-1.2-3.2-3.4-3.3-3.6 0.2-0.1 2.3-1.7 1.3-3-0.9-1.1-3.4-3.2-3.6-3.4 1.7-0.8 2.1-1.5 1.2-3.2-1.6-3-6.1-10.6-6.8-11.4-0.5-0.5-0.8-0.8-1.2-0.8s-0.8 0.2-1.2 0.8c-0.7 0.8-5.2 8.4-6.8 11.4-0.9 1.6-0.5 2.4 1.2 3.2-0.2 0.2-2.7 2.4-3.6 3.4-1 1.2 1.1 2.8 1.3 3-0.2 0.1-2.4 2.4-3.3 3.6-0.7 0.9 1 2.4 1.1 2.5-1 1.2-2 2.2-2.9 3.4-0.7 1-0.6 1.6 0.3 2.4 2 1.2 4.9 1.9 7 2.2 1.7 0.2 3.4 0.3 5.2 0.4-0.1 1.6-0.2 3.1-0.4 4.7 0.7 0 1.4 0.9 2.1 0.9s1.4-0.9 2.1-0.9c-0.1-1.6-0.2-3.1-0.4-4.7 1.8-0.1 3.5-0.2 5.2-0.4 2.1-0.2 5-0.9 7-2.2 0.9-0.8 1.1-1.4 0.3-2.4z"/>
 <path class="t" d="m3179 214.9c-0.4-0.6-1-1.1-1.4-1.7 0.1 0 0.9-0.8 0.6-1.2-0.4-0.6-1.6-1.7-1.7-1.7 0.1-0.1 1.2-0.8 0.6-1.4-0.4-0.5-1.7-1.6-1.8-1.7 0.8-0.4 1-0.7 0.6-1.5-0.8-1.5-3-5.1-3.4-5.5-0.2-0.3-0.4-0.4-0.6-0.4s-0.4 0.1-0.6 0.4c-0.3 0.4-2.6 4.1-3.4 5.5-0.4 0.8-0.2 1.2 0.6 1.5-0.1 0.1-1.4 1.1-1.8 1.7-0.5 0.6 0.5 1.4 0.6 1.4l-1.7 1.7c-0.3 0.4 0.5 1.2 0.6 1.2-0.5 0.6-1 1.1-1.4 1.7-0.4 0.5-0.3 0.8 0.2 1.2 1 0.6 2.4 0.9 3.5 1 0.9 0.1 1.7 0.1 2.6 0.2-0.1 0.8-0.1 1.5-0.2 2.3 0.4 0 0.7 0.4 1.1 0.4s0.7-0.4 1.1-0.4c-0.1-0.8-0.1-1.5-0.2-2.3 0.9-0.1 1.7-0.1 2.6-0.2 1-0.1 2.5-0.4 3.5-1 0.3-0.4 0.4-0.8 0-1.2z"/>
 <path class="t" d="m3388.8 156.5c-0.4-0.6-1-1.1-1.4-1.7 0.1 0 0.9-0.8 0.6-1.2-0.4-0.6-1.6-1.7-1.7-1.7 0.1-0.1 1.2-0.8 0.6-1.4-0.4-0.5-1.7-1.6-1.8-1.7 0.8-0.4 1-0.7 0.6-1.5-0.8-1.5-3-5.1-3.4-5.5-0.2-0.3-0.4-0.4-0.6-0.4s-0.4 0.1-0.6 0.4c-0.3 0.4-2.6 4.1-3.4 5.5-0.4 0.8-0.2 1.2 0.6 1.5-0.1 0.1-1.4 1.1-1.8 1.7-0.5 0.6 0.5 1.4 0.6 1.4l-1.7 1.7c-0.3 0.4 0.5 1.2 0.6 1.2-0.5 0.6-1 1.1-1.4 1.7-0.4 0.5-0.3 0.8 0.2 1.2 1 0.6 2.4 0.9 3.5 1 0.9 0.1 1.7 0.1 2.6 0.2-0.1 0.8-0.1 1.5-0.2 2.3 0.4 0 0.7 0.4 1.1 0.4s0.7-0.4 1.1-0.4c-0.1-0.8-0.1-1.5-0.2-2.3 0.9-0.1 1.7-0.1 2.6-0.2 1-0.1 2.5-0.4 3.5-1 0.3-0.4 0.4-0.8 0-1.2z"/>
 <path class="t" d="m3547.2 277.6c-1-1.2-2-2.4-3.1-3.6 0.1-0.1 1.9-1.7 1.2-2.6-1-1.2-3.4-3.6-3.6-3.7 0.2-0.1 2.5-1.8 1.4-3.1-0.9-1.1-3.6-3.4-3.8-3.6 1.8-0.8 2.2-1.6 1.3-3.3-1.7-3.1-6.5-11-7.2-11.8-0.5-0.6-0.9-0.8-1.3-0.8s-0.8 0.2-1.3 0.8c-0.7 0.8-5.6 8.7-7.2 11.8-0.9 1.7-0.5 2.5 1.3 3.3-0.2 0.2-2.9 2.4-3.9 3.5-1.1 1.3 1.1 3 1.4 3.1-0.2 0.1-2.6 2.5-3.6 3.7-0.7 0.9 1.1 2.5 1.2 2.6-1.1 1.2-2.1 2.3-3.1 3.6-0.8 1-0.7 1.7 0.3 2.5 2.1 1.3 5.2 2 7.4 2.3 1.8 0.2 3.7 0.3 5.5 0.5-0.1 1.7-0.3 3.3-0.4 4.9 0.8 0 1.5 0.9 2.3 1 0.7 0 1.5-0.9 2.3-0.9-0.1-1.7-0.2-3.3-0.4-4.9 1.9-0.1 3.7-0.2 5.5-0.4 2.2-0.2 5.3-0.9 7.4-2.2 1-1 1.2-1.7 0.4-2.7z"/>
 <path class="t" d="m3652 193.7c-0.5-0.6-1-1.2-1.5-1.7 0.1 0 0.9-0.8 0.6-1.3-0.5-0.6-1.6-1.7-1.7-1.8 0.1-0.1 1.2-0.9 0.7-1.5-0.5-0.5-1.7-1.6-1.9-1.7 0.9-0.4 1.1-0.8 0.6-1.6-0.8-1.5-3.1-5.3-3.5-5.7-0.2-0.3-0.4-0.4-0.6-0.4s-0.4 0.1-0.6 0.4c-0.3 0.4-2.7 4.2-3.5 5.7-0.4 0.8-0.2 1.2 0.6 1.6-0.1 0.1-1.4 1.2-1.9 1.7-0.5 0.6 0.6 1.4 0.7 1.5-0.1 0.1-1.3 1.2-1.7 1.8-0.4 0.4 0.5 1.2 0.6 1.3-0.5 0.6-1 1.1-1.5 1.7-0.4 0.5-0.3 0.8 0.2 1.2 1 0.6 2.5 1 3.6 1.1 0.9 0.1 1.8 0.1 2.7 0.2-0.1 0.8-0.1 1.6-0.2 2.4 0.4 0 0.7 0.5 1.1 0.5s0.7-0.5 1.1-0.5c-0.1-0.8-0.1-1.6-0.2-2.4 0.9-0.1 1.8-0.1 2.7-0.2 1.1-0.1 2.6-0.5 3.6-1.1 0.3-0.4 0.3-0.7 0-1.2z"/>
 <path class="t" d="m3800.6 147.5c-0.5-0.6-1-1.2-1.5-1.7 0.1 0 0.9-0.8 0.6-1.3-0.5-0.6-1.6-1.7-1.7-1.8 0.1-0.1 1.2-0.9 0.7-1.5-0.5-0.5-1.7-1.6-1.9-1.7 0.9-0.4 1.1-0.8 0.6-1.6-0.8-1.5-3.1-5.3-3.5-5.7-0.2-0.3-0.4-0.4-0.6-0.4s-0.4 0.1-0.6 0.4c-0.3 0.4-2.7 4.2-3.5 5.7-0.4 0.8-0.2 1.2 0.6 1.6-0.1 0.1-1.4 1.2-1.9 1.7-0.5 0.6 0.6 1.4 0.7 1.5-0.1 0.1-1.3 1.2-1.7 1.8-0.4 0.4 0.5 1.2 0.6 1.3-0.5 0.6-1 1.1-1.5 1.7-0.4 0.5-0.3 0.8 0.2 1.2 1 0.6 2.5 1 3.6 1.1 0.9 0.1 1.8 0.1 2.7 0.2-0.1 0.8-0.1 1.6-0.2 2.4 0.4 0 0.7 0.5 1.1 0.5s0.7-0.5 1.1-0.5c-0.1-0.8-0.1-1.6-0.2-2.4 0.9-0.1 1.8-0.1 2.7-0.2 1.1-0.1 2.6-0.5 3.6-1.1 0.3-0.4 0.4-0.7 0-1.2z"/>
 <path class="t" d="m3951.8 274c-0.9-1.1-1.8-2.1-2.8-3.2 0.1 0 1.7-1.5 1.1-2.3-0.9-1.1-3-3.2-3.2-3.3 0.2-0.1 2.2-1.6 1.2-2.7-0.8-1-3.2-3-3.4-3.2 1.6-0.7 2-1.4 1.2-2.9-1.5-2.8-5.8-9.8-6.4-10.5-0.4-0.5-0.8-0.7-1.2-0.7s-0.7 0.2-1.2 0.7c-0.6 0.7-5 7.7-6.4 10.5-0.8 1.5-0.4 2.2 1.2 2.9-0.2 0.2-2.6 2.2-3.4 3.1-1 1.1 1 2.6 1.2 2.7-0.2 0.1-2.3 2.2-3.2 3.3-0.6 0.8 0.9 2.3 1.1 2.3-0.9 1.1-1.9 2.1-2.8 3.2-0.7 0.9-0.6 1.5 0.3 2.3 1.9 1.2 4.6 1.8 6.6 2 1.6 0.2 3.3 0.3 4.9 0.4-0.1 1.5-0.2 2.9-0.3 4.4 0.7 0 1.3 0.8 2 0.8s1.3-0.8 2-0.8c-0.1-1.5-0.2-2.9-0.3-4.4 1.7-0.1 3.3-0.2 4.9-0.4 2-0.2 4.7-0.8 6.6-2 0.9-0.7 1-1.3 0.3-2.2z"/>
 <path class="t" d="m1448.7 253c-0.8-1-1.7-2-2.6-3 0.1 0 1.6-1.4 1-2.2-0.8-1-2.8-3-3-3.1 0.2-0.1 2.1-1.5 1.1-2.6-0.8-0.9-3-2.8-3.2-3 1.5-0.7 1.8-1.3 1.1-2.8-1.4-2.6-5.4-9.2-6-9.9-0.4-0.5-0.7-0.7-1.1-0.7s-0.7 0.2-1.1 0.7c-0.6 0.7-4.6 7.3-6 9.9-0.8 1.4-0.4 2.1 1.1 2.8-0.2 0.2-2.4 2.1-3.2 3-0.9 1.1 1 2.5 1.1 2.6-0.2 0.1-2.2 2.1-3 3.1-0.6 0.8 0.9 2.1 1 2.2-0.9 1-1.8 2-2.6 3-0.7 0.9-0.5 1.4 0.3 2.1 1.8 1.1 4.3 1.7 6.2 1.9 1.5 0.2 3.1 0.2 4.6 0.4-0.1 1.4-0.2 2.7-0.3 4.1 0.6 0 1.3 0.8 1.9 0.8s1.2-0.8 1.9-0.8c-0.1-1.4-0.2-2.7-0.3-4.1 1.6-0.1 3.1-0.2 4.6-0.4 1.9-0.2 4.4-0.8 6.2-1.9 0.9-0.7 1-1.3 0.3-2.1z"/>
 <path class="t" d="m921.8 183.8c-0.9-1.2-1.9-2.2-2.9-3.3 0.1 0 1.8-1.6 1.1-2.4-0.9-1.1-3.1-3.3-3.3-3.5 0.2-0.1 2.3-1.7 1.3-2.9-0.9-1-3.4-3.1-3.6-3.3 1.7-0.8 2.1-1.5 1.2-3.1-1.5-2.9-6-10.3-6.7-11-0.4-0.5-0.8-0.8-1.2-0.8s-0.8 0.2-1.2 0.8c-0.7 0.8-5.2 8.1-6.7 11-0.8 1.6-0.4 2.3 1.2 3.1-0.2 0.2-2.7 2.3-3.6 3.3-1 1.2 1.1 2.8 1.3 2.9-0.2 0.1-2.4 2.3-3.3 3.5-0.7 0.8 1 2.4 1.1 2.4-1 1.1-2 2.2-2.9 3.3-0.7 1-0.6 1.6 0.3 2.4 2 1.2 4.8 1.9 6.9 2.1 1.7 0.2 3.4 0.3 5.2 0.4-0.1 1.6-0.2 3.1-0.4 4.6 0.7 0 1.4 0.9 2.1 0.9s1.4-0.9 2.1-0.9c-0.1-1.5-0.2-3-0.4-4.6 1.8-0.1 3.5-0.2 5.2-0.4 2.1-0.2 4.9-0.9 6.9-2.1 0.9-0.9 1-1.5 0.3-2.4z"/>
 <path class="t" d="m763.5 212.8c-0.5-0.6-1-1.1-1.5-1.7 0.1 0 0.9-0.8 0.6-1.2-0.5-0.6-1.6-1.7-1.7-1.7 0.1-0.1 1.2-0.8 0.6-1.5-0.4-0.5-1.7-1.6-1.8-1.7 0.8-0.4 1-0.8 0.6-1.6-0.8-1.5-3-5.2-3.4-5.6-0.2-0.3-0.4-0.4-0.6-0.4s-0.4 0.1-0.6 0.4c-0.3 0.4-2.6 4.1-3.4 5.6-0.4 0.8-0.2 1.2 0.6 1.6-0.1 0.1-1.4 1.2-1.8 1.7-0.5 0.6 0.5 1.4 0.6 1.5l-1.7 1.7c-0.3 0.4 0.5 1.2 0.6 1.2-0.5 0.6-1 1.1-1.5 1.7-0.4 0.5-0.3 0.8 0.2 1.2 1 0.6 2.4 0.9 3.5 1.1 0.9 0.1 1.7 0.1 2.6 0.2-0.1 0.8-0.1 1.5-0.2 2.3 0.4 0 0.7 0.4 1.1 0.4s0.7-0.4 1.1-0.4c-0.1-0.8-0.1-1.5-0.2-2.3 0.9-0.1 1.7-0.1 2.6-0.2 1-0.1 2.5-0.4 3.5-1.1 0.5-0.4 0.6-0.7 0.2-1.2z"/>
 <path class="t" d="m524.4 214.6c-0.6-0.8-1.4-1.6-2.1-2.4 0.1 0 1.3-1.1 0.8-1.7-0.6-0.8-2.2-2.4-2.4-2.5 0.2-0.1 1.6-1.2 0.9-2.1-0.6-0.7-2.4-2.2-2.6-2.4 1.2-0.5 1.5-1.1 0.9-2.2-1.1-2.1-4.3-7.4-4.8-7.9-0.3-0.4-0.6-0.5-0.9-0.5s-0.6 0.2-0.9 0.5c-0.5 0.6-3.7 5.8-4.8 7.9-0.6 1.1-0.3 1.7 0.9 2.2-0.2 0.1-1.9 1.6-2.6 2.4-0.7 0.9 0.8 2 0.9 2.1-0.1 0.1-1.7 1.7-2.4 2.5-0.5 0.6 0.7 1.7 0.8 1.7-0.7 0.8-1.4 1.6-2.1 2.4-0.5 0.7-0.4 1.1 0.2 1.7 1.4 0.9 3.5 1.3 4.9 1.5 1.2 0.1 2.4 0.2 3.7 0.3l-0.3 3.3c0.5 0 1 0.6 1.5 0.6s1-0.6 1.5-0.6l-0.3-3.3c1.3-0.1 2.5-0.2 3.7-0.3 1.5-0.2 3.5-0.6 4.9-1.5 1.1-0.5 1.2-1 0.6-1.7z"/>
 <path class="t" d="m338.7 241c-0.5-0.7-1.1-1.3-1.7-2 0.1 0 1.1-0.9 0.7-1.5-0.5-0.7-1.9-2-2-2.1 0.1-0.1 1.4-1 0.8-1.7-0.5-0.6-2-1.9-2.2-2 1-0.5 1.2-0.9 0.7-1.9-0.9-1.7-3.6-6.2-4-6.6-0.3-0.3-0.5-0.5-0.7-0.5s-0.5 0.1-0.7 0.5c-0.4 0.5-3.1 4.9-4 6.6-0.5 1-0.3 1.4 0.7 1.9-0.1 0.1-1.6 1.4-2.2 2-0.6 0.7 0.6 1.7 0.8 1.7-0.1 0.1-1.5 1.4-2 2.1-0.4 0.5 0.6 1.4 0.7 1.5-0.6 0.7-1.2 1.3-1.7 2-0.4 0.6-0.4 1 0.2 1.4 1.2 0.7 2.9 1.1 4.1 1.3 1 0.1 2 0.2 3.1 0.2-0.1 0.9-0.1 1.8-0.2 2.8 0.4 0 0.8 0.5 1.3 0.5s0.8-0.5 1.3-0.5c-0.1-0.9-0.1-1.8-0.2-2.8 1.1-0.1 2.1-0.1 3.1-0.2 1.2-0.1 3-0.5 4.1-1.3 0.4-0.5 0.5-0.9 0-1.4z"/>
 <path class="t" d="m233.5 137.2c-0.5-0.7-1.1-1.3-1.7-2 0.1 0 1.1-0.9 0.7-1.5-0.5-0.7-1.9-2-2-2.1 0.1-0.1 1.4-1 0.8-1.7-0.5-0.6-2-1.9-2.2-2 1-0.5 1.2-0.9 0.7-1.9-0.9-1.7-3.6-6.2-4-6.6-0.3-0.3-0.5-0.5-0.7-0.5s-0.5 0.1-0.7 0.5c-0.4 0.5-3.1 4.9-4 6.6-0.5 1-0.3 1.4 0.7 1.9-0.1 0.1-1.6 1.4-2.2 2-0.6 0.7 0.6 1.7 0.8 1.7-0.1 0.1-1.5 1.4-2 2.1-0.4 0.5 0.6 1.4 0.7 1.5-0.6 0.7-1.2 1.3-1.7 2-0.4 0.6-0.4 1 0.2 1.4 1.2 0.7 2.9 1.1 4.1 1.3 1 0.1 2 0.2 3.1 0.2-0.1 0.9-0.1 1.8-0.2 2.8 0.4 0 0.8 0.5 1.3 0.5s0.8-0.5 1.3-0.5c-0.1-0.9-0.1-1.8-0.2-2.8 1.1-0.1 2.1-0.1 3.1-0.2 1.2-0.1 3-0.5 4.1-1.3 0.4-0.5 0.4-0.8 0-1.4z"/>
 <path class="t" d="m122.7 203.1c-1-1.3-2.1-2.4-3.2-3.6 0.1-0.1 2-1.7 1.2-2.6-1-1.2-3.4-3.7-3.6-3.8 0.2-0.1 2.5-1.8 1.4-3.1-1-1.1-3.7-3.4-3.9-3.6 1.8-0.8 2.2-1.6 1.3-3.4-1.7-3.2-6.6-11.2-7.3-12.1-0.5-0.6-0.9-0.8-1.3-0.8s-0.8 0.3-1.3 0.8c-0.7 0.8-5.6 8.9-7.3 12.1-0.9 1.7-0.5 2.5 1.3 3.4-0.2 0.2-3 2.5-3.9 3.6-1.1 1.3 1.2 3 1.4 3.1-0.2 0.1-2.6 2.6-3.6 3.8-0.7 0.9 1.1 2.6 1.2 2.6-1.1 1.2-2.2 2.4-3.2 3.6-0.8 1-0.7 1.7 0.3 2.6 2.1 1.3 5.3 2 7.5 2.3 1.9 0.2 3.7 0.3 5.6 0.5-0.1 1.7-0.3 3.3-0.4 5 0.8 0 1.5 1 2.3 1s1.5-1 2.3-1c-0.1-1.7-0.3-3.3-0.4-5 1.9-0.2 3.8-0.3 5.6-0.5 2.3-0.2 5.4-1 7.5-2.3 1.1-0.9 1.3-1.6 0.5-2.6z"/>
 <path class="t" d="m32.9 255.2c-0.4-0.6-1-1.1-1.5-1.7 0.1 0 0.9-0.8 0.6-1.2-0.5-0.6-1.6-1.7-1.7-1.7 0.1-0.1 1.2-0.8 0.6-1.4-0.4-0.5-1.7-1.6-1.8-1.7 0.8-0.4 1-0.8 0.6-1.6-0.8-1.5-3-5.2-3.4-5.6-0.2-0.3-0.4-0.4-0.6-0.4s-0.4 0.1-0.6 0.4c-0.3 0.4-2.6 4.1-3.4 5.6-0.4 0.8-0.2 1.2 0.6 1.6-0.1 0.1-1.4 1.2-1.8 1.7-0.5 0.6 0.5 1.4 0.6 1.4l-1.7 1.7c-0.3 0.4 0.5 1.2 0.6 1.2-0.5 0.6-1 1.1-1.5 1.7-0.4 0.5-0.3 0.8 0.2 1.2 1 0.6 2.4 0.9 3.5 1.1 0.9 0.1 1.7 0.1 2.6 0.2-0.1 0.8-0.1 1.5-0.2 2.3 0.4 0 0.7 0.4 1.1 0.4s0.7-0.4 1.1-0.4c-0.1-0.8-0.1-1.5-0.2-2.3 0.9-0.1 1.7-0.1 2.6-0.2 1-0.1 2.5-0.4 3.5-1.1 0.5-0.4 0.6-0.7 0.2-1.2z"/>
 <path class="t" d="m5007.4 285.1c-0.9-1.2-1.9-2.2-2.9-3.3 0.1 0 1.8-1.6 1.1-2.4-0.9-1.1-3.1-3.3-3.3-3.5 0.2-0.1 2.3-1.7 1.3-2.9-0.9-1-3.4-3.1-3.6-3.3 1.7-0.8 2.1-1.5 1.2-3.1-1.5-2.9-6-10.3-6.7-11-0.4-0.5-0.8-0.8-1.2-0.8s-0.8 0.2-1.2 0.8c-0.7 0.8-5.2 8.1-6.7 11-0.8 1.6-0.4 2.3 1.2 3.1-0.2 0.2-2.7 2.3-3.6 3.3-1 1.2 1.1 2.8 1.3 2.9-0.2 0.1-2.4 2.3-3.3 3.5-0.7 0.8 1 2.4 1.1 2.4-1 1.1-2 2.2-2.9 3.3-0.7 1-0.6 1.6 0.3 2.4 2 1.2 4.8 1.9 6.9 2.1 1.7 0.2 3.4 0.3 5.2 0.4-0.1 1.6-0.2 3.1-0.4 4.6 0.7 0 1.4 0.9 2.1 0.9s1.4-0.9 2.1-0.9c-0.1-1.5-0.2-3-0.4-4.6 1.8-0.1 3.5-0.2 5.2-0.4 2.1-0.2 4.9-0.9 6.9-2.1 0.9-0.8 1-1.5 0.3-2.4z"/>
 <path class="t" d="m5226.4 201.2c-0.3-0.4-0.7-0.8-1.1-1.2 0 0 0.7-0.6 0.4-0.9-0.3-0.4-1.1-1.2-1.2-1.3 0.1 0 0.8-0.6 0.5-1.1-0.3-0.4-1.2-1.1-1.3-1.2 0.6-0.3 0.8-0.5 0.4-1.1-0.6-1.1-2.2-3.8-2.5-4-0.2-0.2-0.3-0.3-0.4-0.3s-0.3 0.1-0.4 0.3c-0.2 0.3-1.9 3-2.5 4-0.3 0.6-0.2 0.9 0.4 1.1-0.1 0.1-1 0.8-1.3 1.2-0.4 0.4 0.4 1 0.5 1.1-0.1 0-0.9 0.9-1.2 1.3-0.2 0.3 0.4 0.9 0.4 0.9-0.4 0.4-0.7 0.8-1.1 1.2-0.3 0.3-0.2 0.6 0.1 0.9 0.7 0.4 1.8 0.7 2.5 0.8 0.6 0.1 1.2 0.1 1.9 0.2 0 0.6-0.1 1.1-0.1 1.7 0.3 0 0.5 0.3 0.8 0.3s0.5-0.3 0.8-0.3c0-0.6-0.1-1.1-0.1-1.7 0.6-0.1 1.3-0.1 1.9-0.2 0.8-0.1 1.8-0.3 2.5-0.8 0.3-0.3 0.4-0.6 0.1-0.9z"/>
 <path class="t" d="m5586.4 162.8c-0.4-0.5-0.9-1-1.3-1.5 0.1 0 0.8-0.7 0.5-1.1-0.4-0.5-1.4-1.5-1.5-1.6 0.1-0.1 1.1-0.8 0.6-1.3-0.4-0.5-1.5-1.4-1.7-1.5 0.8-0.3 0.9-0.7 0.6-1.4-0.7-1.3-2.8-4.7-3.1-5.1-0.2-0.2-0.4-0.4-0.6-0.3-0.2 0-0.4 0.1-0.6 0.3-0.3 0.4-2.4 3.8-3.1 5.1-0.4 0.7-0.2 1.1 0.6 1.4-0.1 0.1-1.3 1.1-1.7 1.5-0.5 0.6 0.5 1.3 0.6 1.3-0.1 0.1-1.1 1.1-1.5 1.6-0.3 0.4 0.5 1.1 0.5 1.1-0.5 0.5-0.9 1-1.3 1.5-0.3 0.4-0.3 0.7 0.1 1.1 0.9 0.6 2.2 0.9 3.2 1 0.8 0.1 1.6 0.1 2.4 0.2-0.1 0.7-0.1 1.4-0.2 2.1 0.3 0 0.6 0.4 1 0.4 0.3 0 0.6-0.4 1-0.4-0.1-0.7-0.1-1.4-0.2-2.1 0.8-0.1 1.6-0.1 2.4-0.2 1-0.1 2.3-0.4 3.2-1 0.4-0.4 0.4-0.7 0.1-1.1z"/>
 <path class="t" d="m5744.9 138.2c-0.4-0.5-0.9-1-1.3-1.5 0.1 0 0.8-0.7 0.5-1.1-0.4-0.5-1.4-1.5-1.5-1.6 0.1-0.1 1.1-0.8 0.6-1.3-0.4-0.5-1.5-1.4-1.7-1.5 0.8-0.3 0.9-0.7 0.6-1.4-0.7-1.3-2.8-4.7-3.1-5.1-0.2-0.2-0.4-0.4-0.6-0.3-0.2 0-0.4 0.1-0.6 0.3-0.3 0.4-2.4 3.8-3.1 5.1-0.4 0.7-0.2 1.1 0.6 1.4-0.1 0.1-1.3 1.1-1.7 1.5-0.5 0.6 0.5 1.3 0.6 1.3-0.1 0.1-1.1 1.1-1.5 1.6-0.3 0.4 0.5 1.1 0.5 1.1-0.5 0.5-0.9 1-1.3 1.5-0.3 0.4-0.3 0.7 0.1 1.1 0.9 0.6 2.2 0.9 3.2 1 0.8 0.1 1.6 0.1 2.4 0.2-0.1 0.7-0.1 1.4-0.2 2.1 0.3 0 0.6 0.4 1 0.4 0.3 0 0.6-0.4 1-0.4-0.1-0.7-0.1-1.4-0.2-2.1 0.8-0.1 1.6-0.1 2.4-0.2 1-0.1 2.3-0.4 3.2-1 0.4-0.4 0.4-0.7 0.1-1.1z"/>
 <path class="t" d="m5913 253.6c-0.4-0.5-0.9-1-1.3-1.5 0.1 0 0.8-0.7 0.5-1.1-0.4-0.5-1.4-1.5-1.5-1.6 0.1-0.1 1.1-0.8 0.6-1.3-0.4-0.5-1.5-1.4-1.7-1.5 0.8-0.3 0.9-0.7 0.6-1.4-0.7-1.3-2.8-4.7-3.1-5.1-0.2-0.2-0.4-0.4-0.6-0.3-0.2 0-0.4 0.1-0.6 0.3-0.3 0.4-2.4 3.8-3.1 5.1-0.4 0.7-0.2 1.1 0.6 1.4-0.1 0.1-1.3 1.1-1.7 1.5-0.5 0.6 0.5 1.3 0.6 1.3-0.1 0.1-1.1 1.1-1.5 1.6-0.3 0.4 0.5 1.1 0.5 1.1-0.5 0.5-0.9 1-1.3 1.5-0.3 0.4-0.3 0.7 0.1 1.1 0.9 0.6 2.2 0.9 3.2 1 0.8 0.1 1.6 0.1 2.4 0.2-0.1 0.7-0.1 1.4-0.2 2.1 0.3 0 0.6 0.4 1 0.4 0.3 0 0.6-0.4 1-0.4-0.1-0.7-0.1-1.4-0.2-2.1 0.8-0.1 1.6-0.1 2.4-0.2 1-0.1 2.3-0.4 3.2-1 0.4-0.3 0.4-0.6 0.1-1.1z"/>
 <path class="t" d="m6204.7 268.2c-0.8-1.1-1.8-2.1-2.7-3.1 0.1 0 1.7-1.5 1-2.3-0.8-1.1-2.9-3.1-3.1-3.3 0.2-0.1 2.2-1.6 1.2-2.7-0.8-1-3.2-2.9-3.4-3.1 1.6-0.7 1.9-1.4 1.1-2.9-1.5-2.7-5.7-9.7-6.3-10.4-0.4-0.5-0.8-0.7-1.1-0.7-0.4 0-0.7 0.2-1.1 0.7-0.6 0.7-4.9 7.7-6.3 10.4-0.8 1.5-0.4 2.2 1.1 2.9-0.2 0.2-2.6 2.2-3.4 3.1-1 1.1 1 2.6 1.2 2.7-0.2 0.1-2.3 2.2-3.1 3.3-0.6 0.8 0.9 2.2 1 2.3-0.9 1.1-1.9 2.1-2.7 3.1-0.7 0.9-0.6 1.5 0.3 2.2 1.8 1.1 4.6 1.8 6.5 2 1.6 0.2 3.2 0.3 4.9 0.4-0.1 1.5-0.2 2.9-0.3 4.3 0.7 0 1.3 0.8 2 0.8 0.6 0 1.3-0.8 2-0.8-0.1-1.4-0.2-2.9-0.3-4.3 1.7-0.1 3.3-0.2 4.9-0.4 1.9-0.2 4.7-0.8 6.5-2 0.7-0.7 0.8-1.3 0.1-2.2z"/>
 <path class="t" d="m6424.4 213.3c-0.6-0.7-1.3-1.3-2-2 0.1 0 1.2-0.9 0.8-1.4-0.6-0.7-2.1-2-2.3-2.1 0.1-0.1 1.6-1 0.9-1.7-0.6-0.6-2.3-1.9-2.5-2 1.1-0.5 1.4-0.9 0.8-1.8-1.1-1.7-4.2-6.1-4.6-6.6-0.3-0.3-0.6-0.5-0.8-0.4-0.3 0-0.5 0.1-0.8 0.4-0.5 0.5-3.6 4.9-4.6 6.6-0.6 1-0.3 1.4 0.8 1.8-0.2 0.1-1.9 1.4-2.5 2-0.7 0.7 0.7 1.6 0.9 1.7-0.1 0.1-1.7 1.4-2.3 2.1-0.5 0.5 0.7 1.4 0.8 1.4-0.7 0.7-1.4 1.3-2 2-0.5 0.6-0.4 0.9 0.2 1.4 1.3 0.7 3.3 1.1 4.7 1.2 1.2 0.1 2.3 0.2 3.5 0.2-0.1 0.9-0.2 1.8-0.2 2.7 0.5 0 1 0.5 1.4 0.5 0.5 0 0.9-0.5 1.4-0.5-0.1-0.9-0.2-1.8-0.2-2.7 1.2-0.1 2.4-0.1 3.5-0.2 1.4-0.1 3.4-0.5 4.7-1.2 0.8-0.5 0.9-0.9 0.4-1.4z"/>
 <path class="t" d="m6629.3 163.5c-0.5-0.7-1.1-1.3-1.7-2 0.1 0 1.1-0.9 0.7-1.4-0.5-0.7-1.8-2-1.9-2.1 0.1-0.1 1.4-1 0.8-1.7-0.5-0.6-2-1.9-2.1-2 1-0.5 1.2-0.9 0.7-1.8-0.9-1.7-3.5-6.1-3.9-6.6-0.3-0.3-0.5-0.5-0.7-0.4-0.2 0-0.5 0.1-0.7 0.4-0.4 0.5-3 4.9-3.9 6.6-0.5 1-0.3 1.4 0.7 1.8-0.1 0.1-1.6 1.4-2.1 2-0.6 0.7 0.6 1.6 0.8 1.7-0.1 0.1-1.4 1.4-1.9 2.1-0.4 0.5 0.6 1.4 0.7 1.4-0.6 0.7-1.2 1.3-1.7 2-0.4 0.6-0.4 0.9 0.2 1.4 1.2 0.7 2.8 1.1 4.1 1.2 1 0.1 2 0.2 3 0.2-0.1 0.9-0.1 1.8-0.2 2.7 0.4 0 0.8 0.5 1.2 0.5s0.8-0.5 1.2-0.5c-0.1-0.9-0.1-1.8-0.2-2.7 1-0.1 2-0.1 3-0.2 1.2-0.1 2.9-0.5 4.1-1.2 0.1-0.5 0.2-0.9-0.2-1.4z"/>
 <path class="t" d="m6757.8 217.2c-0.4-0.5-0.9-1.1-1.4-1.6 0.1 0 0.8-0.7 0.5-1.2-0.4-0.5-1.5-1.6-1.5-1.7 0.1-0.1 1.1-0.8 0.6-1.4-0.4-0.5-1.6-1.5-1.7-1.6 0.8-0.4 1-0.7 0.6-1.5-0.7-1.4-2.8-4.9-3.1-5.3-0.2-0.2-0.4-0.4-0.6-0.4s-0.4 0.1-0.6 0.4c-0.3 0.4-2.4 3.9-3.1 5.3-0.4 0.8-0.2 1.1 0.6 1.5-0.1 0.1-1.3 1.1-1.7 1.6-0.5 0.6 0.5 1.3 0.6 1.4-0.1 0.1-1.1 1.1-1.5 1.7-0.3 0.4 0.5 1.1 0.5 1.2-0.5 0.5-0.9 1-1.4 1.6-0.3 0.5-0.3 0.8 0.1 1.1 0.9 0.6 2.3 0.9 3.2 1 0.8 0.1 1.6 0.1 2.4 0.2-0.1 0.7-0.1 1.5-0.2 2.2 0.3 0 0.7 0.4 1 0.4s0.6-0.4 1-0.4c-0.1-0.7-0.1-1.4-0.2-2.2 0.8-0.1 1.6-0.1 2.4-0.2 1-0.1 2.3-0.4 3.2-1 0.6-0.3 0.6-0.6 0.3-1.1z"/>
 <path class="t" d="m6903.3 258.7c-0.9-1.2-1.9-2.3-2.9-3.4 0.1-0.1 1.8-1.6 1.1-2.5-0.9-1.2-3.2-3.4-3.3-3.6 0.2-0.1 2.3-1.7 1.3-3-0.9-1.1-3.4-3.2-3.6-3.4 1.7-0.8 2.1-1.5 1.2-3.2-1.6-3-6.1-10.6-6.8-11.4-0.5-0.5-0.8-0.8-1.2-0.8s-0.8 0.2-1.2 0.8c-0.7 0.8-5.2 8.4-6.8 11.4-0.9 1.6-0.5 2.4 1.2 3.2-0.2 0.2-2.7 2.4-3.6 3.4-1 1.2 1.1 2.8 1.3 3-0.2 0.1-2.4 2.4-3.3 3.6-0.7 0.9 1 2.4 1.1 2.5-1 1.2-2 2.2-2.9 3.4-0.7 1-0.6 1.6 0.3 2.4 2 1.2 4.9 1.9 7 2.2 1.7 0.2 3.4 0.3 5.2 0.4-0.1 1.6-0.2 3.1-0.4 4.7 0.7 0 1.4 0.9 2.1 0.9s1.4-0.9 2.1-0.9c-0.1-1.6-0.2-3.1-0.4-4.7 1.8-0.1 3.5-0.2 5.2-0.4 2.1-0.2 5-0.9 7-2.2 0.9-0.8 1.1-1.4 0.3-2.4z"/>
 <path class="t" d="m7179 214.9c-0.4-0.6-1-1.1-1.4-1.7 0.1 0 0.9-0.8 0.6-1.2-0.4-0.6-1.6-1.7-1.7-1.7 0.1-0.1 1.2-0.8 0.6-1.4-0.4-0.5-1.7-1.6-1.8-1.7 0.8-0.4 1-0.7 0.6-1.5-0.8-1.5-3-5.1-3.4-5.5-0.2-0.3-0.4-0.4-0.6-0.4s-0.4 0.1-0.6 0.4c-0.3 0.4-2.6 4.1-3.4 5.5-0.4 0.8-0.2 1.2 0.6 1.5-0.1 0.1-1.4 1.1-1.8 1.7-0.5 0.6 0.5 1.4 0.6 1.4l-1.7 1.7c-0.3 0.4 0.5 1.2 0.6 1.2-0.5 0.6-1 1.1-1.4 1.7-0.4 0.5-0.3 0.8 0.2 1.2 1 0.6 2.4 0.9 3.5 1 0.9 0.1 1.7 0.1 2.6 0.2-0.1 0.8-0.1 1.5-0.2 2.3 0.4 0 0.7 0.4 1.1 0.4s0.7-0.4 1.1-0.4c-0.1-0.8-0.1-1.5-0.2-2.3 0.9-0.1 1.7-0.1 2.6-0.2 1-0.1 2.5-0.4 3.5-1 0.3-0.4 0.4-0.8 0-1.2z"/>
 <path class="t" d="m7388.8 156.5c-0.4-0.6-1-1.1-1.4-1.7 0.1 0 0.9-0.8 0.6-1.2-0.4-0.6-1.6-1.7-1.7-1.7 0.1-0.1 1.2-0.8 0.6-1.4-0.4-0.5-1.7-1.6-1.8-1.7 0.8-0.4 1-0.7 0.6-1.5-0.8-1.5-3-5.1-3.4-5.5-0.2-0.3-0.4-0.4-0.6-0.4s-0.4 0.1-0.6 0.4c-0.3 0.4-2.6 4.1-3.4 5.5-0.4 0.8-0.2 1.2 0.6 1.5-0.1 0.1-1.4 1.1-1.8 1.7-0.5 0.6 0.5 1.4 0.6 1.4l-1.7 1.7c-0.3 0.4 0.5 1.2 0.6 1.2-0.5 0.6-1 1.1-1.4 1.7-0.4 0.5-0.3 0.8 0.2 1.2 1 0.6 2.4 0.9 3.5 1 0.9 0.1 1.7 0.1 2.6 0.2-0.1 0.8-0.1 1.5-0.2 2.3 0.4 0 0.7 0.4 1.1 0.4s0.7-0.4 1.1-0.4c-0.1-0.8-0.1-1.5-0.2-2.3 0.9-0.1 1.7-0.1 2.6-0.2 1-0.1 2.5-0.4 3.5-1 0.3-0.4 0.4-0.8 0-1.2z"/>
 <path class="t" d="m7547.2 277.6c-1-1.2-2-2.4-3.1-3.6 0.1-0.1 1.9-1.7 1.2-2.6-1-1.2-3.4-3.6-3.6-3.7 0.2-0.1 2.5-1.8 1.4-3.1-0.9-1.1-3.6-3.4-3.8-3.6 1.8-0.8 2.2-1.6 1.3-3.3-1.7-3.1-6.5-11-7.2-11.8-0.5-0.6-0.9-0.8-1.3-0.8s-0.8 0.2-1.3 0.8c-0.7 0.8-5.6 8.7-7.2 11.8-0.9 1.7-0.5 2.5 1.3 3.3-0.2 0.2-2.9 2.4-3.9 3.5-1.1 1.3 1.1 3 1.4 3.1-0.2 0.1-2.6 2.5-3.6 3.7-0.7 0.9 1.1 2.5 1.2 2.6-1.1 1.2-2.1 2.3-3.1 3.6-0.8 1-0.7 1.7 0.3 2.5 2.1 1.3 5.2 2 7.4 2.3 1.8 0.2 3.7 0.3 5.5 0.5-0.1 1.7-0.3 3.3-0.4 4.9 0.8 0 1.5 0.9 2.3 1 0.7 0 1.5-0.9 2.3-0.9-0.1-1.7-0.2-3.3-0.4-4.9 1.9-0.1 3.7-0.2 5.5-0.4 2.2-0.2 5.3-0.9 7.4-2.2 1-1 1.2-1.7 0.4-2.7z"/>
 <path class="t" d="m7652 193.7c-0.5-0.6-1-1.2-1.5-1.7 0.1 0 0.9-0.8 0.6-1.3-0.5-0.6-1.6-1.7-1.7-1.8 0.1-0.1 1.2-0.9 0.7-1.5-0.5-0.5-1.7-1.6-1.9-1.7 0.9-0.4 1.1-0.8 0.6-1.6-0.8-1.5-3.1-5.3-3.5-5.7-0.2-0.3-0.4-0.4-0.6-0.4s-0.4 0.1-0.6 0.4c-0.3 0.4-2.7 4.2-3.5 5.7-0.4 0.8-0.2 1.2 0.6 1.6-0.1 0.1-1.4 1.2-1.9 1.7-0.5 0.6 0.6 1.4 0.7 1.5-0.1 0.1-1.3 1.2-1.7 1.8-0.4 0.4 0.5 1.2 0.6 1.3-0.5 0.6-1 1.1-1.5 1.7-0.4 0.5-0.3 0.8 0.2 1.2 1 0.6 2.5 1 3.6 1.1 0.9 0.1 1.8 0.1 2.7 0.2-0.1 0.8-0.1 1.6-0.2 2.4 0.4 0 0.7 0.5 1.1 0.5s0.7-0.5 1.1-0.5c-0.1-0.8-0.1-1.6-0.2-2.4 0.9-0.1 1.8-0.1 2.7-0.2 1.1-0.1 2.6-0.5 3.6-1.1 0.3-0.4 0.3-0.7 0-1.2z"/>
 <path class="t" d="m7800.6 147.5c-0.5-0.6-1-1.2-1.5-1.7 0.1 0 0.9-0.8 0.6-1.3-0.5-0.6-1.6-1.7-1.7-1.8 0.1-0.1 1.2-0.9 0.7-1.5-0.5-0.5-1.7-1.6-1.9-1.7 0.9-0.4 1.1-0.8 0.6-1.6-0.8-1.5-3.1-5.3-3.5-5.7-0.2-0.3-0.4-0.4-0.6-0.4s-0.4 0.1-0.6 0.4c-0.3 0.4-2.7 4.2-3.5 5.7-0.4 0.8-0.2 1.2 0.6 1.6-0.1 0.1-1.4 1.2-1.9 1.7-0.5 0.6 0.6 1.4 0.7 1.5-0.1 0.1-1.3 1.2-1.7 1.8-0.4 0.4 0.5 1.2 0.6 1.3-0.5 0.6-1 1.1-1.5 1.7-0.4 0.5-0.3 0.8 0.2 1.2 1 0.6 2.5 1 3.6 1.1 0.9 0.1 1.8 0.1 2.7 0.2-0.1 0.8-0.1 1.6-0.2 2.4 0.4 0 0.7 0.5 1.1 0.5s0.7-0.5 1.1-0.5c-0.1-0.8-0.1-1.6-0.2-2.4 0.9-0.1 1.8-0.1 2.7-0.2 1.1-0.1 2.6-0.5 3.6-1.1 0.3-0.4 0.4-0.7 0-1.2z"/>
 <path class="t" d="m7951.8 274c-0.9-1.1-1.8-2.1-2.8-3.2 0.1 0 1.7-1.5 1.1-2.3-0.9-1.1-3-3.2-3.2-3.3 0.2-0.1 2.2-1.6 1.2-2.7-0.8-1-3.2-3-3.4-3.2 1.6-0.7 2-1.4 1.2-2.9-1.5-2.8-5.8-9.8-6.4-10.5-0.4-0.5-0.8-0.7-1.2-0.7s-0.7 0.2-1.2 0.7c-0.6 0.7-5 7.7-6.4 10.5-0.8 1.5-0.4 2.2 1.2 2.9-0.2 0.2-2.6 2.2-3.4 3.1-1 1.1 1 2.6 1.2 2.7-0.2 0.1-2.3 2.2-3.2 3.3-0.6 0.8 0.9 2.3 1.1 2.3-0.9 1.1-1.9 2.1-2.8 3.2-0.7 0.9-0.6 1.5 0.3 2.3 1.9 1.2 4.6 1.8 6.6 2 1.6 0.2 3.3 0.3 4.9 0.4-0.1 1.5-0.2 2.9-0.3 4.4 0.7 0 1.3 0.8 2 0.8s1.3-0.8 2-0.8c-0.1-1.5-0.2-2.9-0.3-4.4 1.7-0.1 3.3-0.2 4.9-0.4 2-0.2 4.7-0.8 6.6-2 0.9-0.7 1-1.3 0.3-2.2z"/>
 <path class="t" d="m5448.7 253c-0.8-1-1.7-2-2.6-3 0.1 0 1.6-1.4 1-2.2-0.8-1-2.8-3-3-3.1 0.2-0.1 2.1-1.5 1.1-2.6-0.8-0.9-3-2.8-3.2-3 1.5-0.7 1.8-1.3 1.1-2.8-1.4-2.6-5.4-9.2-6-9.9-0.4-0.5-0.7-0.7-1.1-0.7s-0.7 0.2-1.1 0.7c-0.6 0.7-4.6 7.3-6 9.9-0.8 1.4-0.4 2.1 1.1 2.8-0.2 0.2-2.4 2.1-3.2 3-0.9 1.1 1 2.5 1.1 2.6-0.2 0.1-2.2 2.1-3 3.1-0.6 0.8 0.9 2.1 1 2.2-0.9 1-1.8 2-2.6 3-0.7 0.9-0.5 1.4 0.3 2.1 1.8 1.1 4.3 1.7 6.2 1.9 1.5 0.2 3.1 0.2 4.6 0.4-0.1 1.4-0.2 2.7-0.3 4.1 0.6 0 1.3 0.8 1.9 0.8s1.2-0.8 1.9-0.8c-0.1-1.4-0.2-2.7-0.3-4.1 1.6-0.1 3.1-0.2 4.6-0.4 1.9-0.2 4.4-0.8 6.2-1.9 0.9-0.7 1-1.3 0.3-2.1z"/>
 <path class="t" d="m4921.8 183.8c-0.9-1.2-1.9-2.2-2.9-3.3 0.1 0 1.8-1.6 1.1-2.4-0.9-1.1-3.1-3.3-3.3-3.5 0.2-0.1 2.3-1.7 1.3-2.9-0.9-1-3.4-3.1-3.6-3.3 1.7-0.8 2.1-1.5 1.2-3.1-1.5-2.9-6-10.3-6.7-11-0.4-0.5-0.8-0.8-1.2-0.8s-0.8 0.2-1.2 0.8c-0.7 0.8-5.2 8.1-6.7 11-0.8 1.6-0.4 2.3 1.2 3.1-0.2 0.2-2.7 2.3-3.6 3.3-1 1.2 1.1 2.8 1.3 2.9-0.2 0.1-2.4 2.3-3.3 3.5-0.7 0.8 1 2.4 1.1 2.4-1 1.1-2 2.2-2.9 3.3-0.7 1-0.6 1.6 0.3 2.4 2 1.2 4.8 1.9 6.9 2.1 1.7 0.2 3.4 0.3 5.2 0.4-0.1 1.6-0.2 3.1-0.4 4.6 0.7 0 1.4 0.9 2.1 0.9s1.4-0.9 2.1-0.9c-0.1-1.5-0.2-3-0.4-4.6 1.8-0.1 3.5-0.2 5.2-0.4 2.1-0.2 4.9-0.9 6.9-2.1 0.9-0.9 1-1.5 0.3-2.4z"/>
 <path class="t" d="m4763.5 212.8c-0.5-0.6-1-1.1-1.5-1.7 0.1 0 0.9-0.8 0.6-1.2-0.5-0.6-1.6-1.7-1.7-1.7 0.1-0.1 1.2-0.8 0.6-1.5-0.4-0.5-1.7-1.6-1.8-1.7 0.8-0.4 1-0.8 0.6-1.6-0.8-1.5-3-5.2-3.4-5.6-0.2-0.3-0.4-0.4-0.6-0.4s-0.4 0.1-0.6 0.4c-0.3 0.4-2.6 4.1-3.4 5.6-0.4 0.8-0.2 1.2 0.6 1.6-0.1 0.1-1.4 1.2-1.8 1.7-0.5 0.6 0.5 1.4 0.6 1.5l-1.7 1.7c-0.3 0.4 0.5 1.2 0.6 1.2-0.5 0.6-1 1.1-1.5 1.7-0.4 0.5-0.3 0.8 0.2 1.2 1 0.6 2.4 0.9 3.5 1.1 0.9 0.1 1.7 0.1 2.6 0.2-0.1 0.8-0.1 1.5-0.2 2.3 0.4 0 0.7 0.4 1.1 0.4s0.7-0.4 1.1-0.4c-0.1-0.8-0.1-1.5-0.2-2.3 0.9-0.1 1.7-0.1 2.6-0.2 1-0.1 2.5-0.4 3.5-1.1 0.5-0.4 0.6-0.7 0.2-1.2z"/>
 <path class="t" d="m4524.4 214.6c-0.6-0.8-1.4-1.6-2.1-2.4 0.1 0 1.3-1.1 0.8-1.7-0.6-0.8-2.2-2.4-2.4-2.5 0.2-0.1 1.6-1.2 0.9-2.1-0.6-0.7-2.4-2.2-2.6-2.4 1.2-0.5 1.5-1.1 0.9-2.2-1.1-2.1-4.3-7.4-4.8-7.9-0.3-0.4-0.6-0.5-0.9-0.5s-0.6 0.2-0.9 0.5c-0.5 0.6-3.7 5.8-4.8 7.9-0.6 1.1-0.3 1.7 0.9 2.2-0.2 0.1-1.9 1.6-2.6 2.4-0.7 0.9 0.8 2 0.9 2.1-0.1 0.1-1.7 1.7-2.4 2.5-0.5 0.6 0.7 1.7 0.8 1.7-0.7 0.8-1.4 1.6-2.1 2.4-0.5 0.7-0.4 1.1 0.2 1.7 1.4 0.9 3.5 1.3 4.9 1.5 1.2 0.1 2.4 0.2 3.7 0.3l-0.3 3.3c0.5 0 1 0.6 1.5 0.6s1-0.6 1.5-0.6l-0.3-3.3c1.3-0.1 2.5-0.2 3.7-0.3 1.5-0.2 3.5-0.6 4.9-1.5 1.1-0.5 1.2-1 0.6-1.7z"/>
 <path class="t" d="m4338.7 241c-0.5-0.7-1.1-1.3-1.7-2 0.1 0 1.1-0.9 0.7-1.5-0.5-0.7-1.9-2-2-2.1 0.1-0.1 1.4-1 0.8-1.7-0.5-0.6-2-1.9-2.2-2 1-0.5 1.2-0.9 0.7-1.9-0.9-1.7-3.6-6.2-4-6.6-0.3-0.3-0.5-0.5-0.7-0.5s-0.5 0.1-0.7 0.5c-0.4 0.5-3.1 4.9-4 6.6-0.5 1-0.3 1.4 0.7 1.9-0.1 0.1-1.6 1.4-2.2 2-0.6 0.7 0.6 1.7 0.8 1.7-0.1 0.1-1.5 1.4-2 2.1-0.4 0.5 0.6 1.4 0.7 1.5-0.6 0.7-1.2 1.3-1.7 2-0.4 0.6-0.4 1 0.2 1.4 1.2 0.7 2.9 1.1 4.1 1.3 1 0.1 2 0.2 3.1 0.2-0.1 0.9-0.1 1.8-0.2 2.8 0.4 0 0.8 0.5 1.3 0.5s0.8-0.5 1.3-0.5c-0.1-0.9-0.1-1.8-0.2-2.8 1.1-0.1 2.1-0.1 3.1-0.2 1.2-0.1 3-0.5 4.1-1.3 0.4-0.5 0.5-0.9 0-1.4z"/>
 <path class="t" d="m4233.5 137.2c-0.5-0.7-1.1-1.3-1.7-2 0.1 0 1.1-0.9 0.7-1.5-0.5-0.7-1.9-2-2-2.1 0.1-0.1 1.4-1 0.8-1.7-0.5-0.6-2-1.9-2.2-2 1-0.5 1.2-0.9 0.7-1.9-0.9-1.7-3.6-6.2-4-6.6-0.3-0.3-0.5-0.5-0.7-0.5s-0.5 0.1-0.7 0.5c-0.4 0.5-3.1 4.9-4 6.6-0.5 1-0.3 1.4 0.7 1.9-0.1 0.1-1.6 1.4-2.2 2-0.6 0.7 0.6 1.7 0.8 1.7-0.1 0.1-1.5 1.4-2 2.1-0.4 0.5 0.6 1.4 0.7 1.5-0.6 0.7-1.2 1.3-1.7 2-0.4 0.6-0.4 1 0.2 1.4 1.2 0.7 2.9 1.1 4.1 1.3 1 0.1 2 0.2 3.1 0.2-0.1 0.9-0.1 1.8-0.2 2.8 0.4 0 0.8 0.5 1.3 0.5s0.8-0.5 1.3-0.5c-0.1-0.9-0.1-1.8-0.2-2.8 1.1-0.1 2.1-0.1 3.1-0.2 1.2-0.1 3-0.5 4.1-1.3 0.4-0.5 0.4-0.8 0-1.4z"/>
 <path class="t" d="m4122.7 203.1c-1-1.3-2.1-2.4-3.2-3.6 0.1-0.1 2-1.7 1.2-2.6-1-1.2-3.4-3.7-3.6-3.8 0.2-0.1 2.5-1.8 1.4-3.1-1-1.1-3.7-3.4-3.9-3.6 1.8-0.8 2.2-1.6 1.3-3.4-1.7-3.2-6.6-11.2-7.3-12.1-0.5-0.6-0.9-0.8-1.3-0.8s-0.8 0.3-1.3 0.8c-0.7 0.8-5.6 8.9-7.3 12.1-0.9 1.7-0.5 2.5 1.3 3.4-0.2 0.2-3 2.5-3.9 3.6-1.1 1.3 1.2 3 1.4 3.1-0.2 0.1-2.6 2.6-3.6 3.8-0.7 0.9 1.1 2.6 1.2 2.6-1.1 1.2-2.2 2.4-3.2 3.6-0.8 1-0.7 1.7 0.3 2.6 2.1 1.3 5.3 2 7.5 2.3 1.9 0.2 3.7 0.3 5.6 0.5-0.1 1.7-0.3 3.3-0.4 5 0.8 0 1.5 1 2.3 1s1.5-1 2.3-1c-0.1-1.7-0.3-3.3-0.4-5 1.9-0.2 3.8-0.3 5.6-0.5 2.3-0.2 5.4-1 7.5-2.3 1.1-0.9 1.3-1.6 0.5-2.6z"/>
 <path class="t" d="m4032.9 255.2c-0.4-0.6-1-1.1-1.5-1.7 0.1 0 0.9-0.8 0.6-1.2-0.5-0.6-1.6-1.7-1.7-1.7 0.1-0.1 1.2-0.8 0.6-1.4-0.4-0.5-1.7-1.6-1.8-1.7 0.8-0.4 1-0.8 0.6-1.6-0.8-1.5-3-5.2-3.4-5.6-0.2-0.3-0.4-0.4-0.6-0.4s-0.4 0.1-0.6 0.4c-0.3 0.4-2.6 4.1-3.4 5.6-0.4 0.8-0.2 1.2 0.6 1.6-0.1 0.1-1.4 1.2-1.8 1.7-0.5 0.6 0.5 1.4 0.6 1.4l-1.7 1.7c-0.3 0.4 0.5 1.2 0.6 1.2-0.5 0.6-1 1.1-1.5 1.7-0.4 0.5-0.3 0.8 0.2 1.2 1 0.6 2.4 0.9 3.5 1.1 0.9 0.1 1.7 0.1 2.6 0.2-0.1 0.8-0.1 1.5-0.2 2.3 0.4 0 0.7 0.4 1.1 0.4s0.7-0.4 1.1-0.4c-0.1-0.8-0.1-1.5-0.2-2.3 0.9-0.1 1.7-0.1 2.6-0.2 1-0.1 2.5-0.4 3.5-1.1 0.5-0.4 0.6-0.7 0.2-1.2z"/>
 <path class="t_shading" d="m993.3 295.4v-40.6c0.4 0 0.8 0.2 1.2 0.8 0.7 0.8 5.2 8.1 6.7 11 0.8 1.6 0.4 2.3-1.2 3.1 0.2 0.2 2.7 2.3 3.6 3.3 1 1.2-1.1 2.8-1.3 2.9 0.2 0.1 2.4 2.3 3.3 3.5 0.7 0.8-1 2.4-1.1 2.4 1 1.1 2 2.2 2.9 3.3 0.7 1 0.6 1.6-0.3 2.4-2 1.2-4.8 1.9-6.9 2.1-1.7 0.2-3.4 0.3-5.2 0.4 0.1 1.6 0.2 3.1 0.4 4.6-0.7-0.1-1.4 0.8-2.1 0.8z"/>
 <path class="t_shading" d="m1221.3 205v-14.9c0.1 0 0.3 0.1 0.4 0.3 0.2 0.3 1.9 3 2.5 4 0.3 0.6 0.2 0.9-0.4 1.1 0.1 0.1 1 0.8 1.3 1.2 0.4 0.4-0.4 1-0.5 1.1 0.1 0 0.9 0.9 1.2 1.3 0.2 0.3-0.4 0.9-0.4 0.9 0.4 0.4 0.7 0.8 1.1 1.2 0.3 0.3 0.2 0.6-0.1 0.9-0.7 0.4-1.8 0.7-2.5 0.8-0.6 0.1-1.2 0.1-1.9 0.2 0 0.6 0.1 1.1 0.1 1.7-0.3-0.1-0.6 0.2-0.8 0.2z"/>
 <path class="t_shading" d="m1579.9 167.6v-18.8c0.2 0 0.4 0.1 0.6 0.3 0.3 0.4 2.4 3.8 3.1 5.1 0.4 0.7 0.2 1.1-0.6 1.4 0.1 0.1 1.3 1.1 1.7 1.5 0.5 0.6-0.5 1.3-0.6 1.3 0.1 0.1 1.1 1.1 1.5 1.6 0.3 0.4-0.5 1.1-0.5 1.1 0.5 0.5 0.9 1 1.3 1.5 0.3 0.4 0.3 0.7-0.1 1.1-0.9 0.6-2.2 0.9-3.2 1-0.8 0.1-1.6 0.1-2.4 0.2 0.1 0.7 0.1 1.4 0.2 2.1-0.4 0.2-0.7 0.6-1 0.6z"/>
 <path class="t_shading" d="m1738.4 142.9v-18.8c0.2 0 0.4 0.1 0.6 0.3 0.3 0.4 2.4 3.8 3.1 5.1 0.4 0.7 0.2 1.1-0.6 1.4 0.1 0.1 1.3 1.1 1.7 1.5 0.5 0.6-0.5 1.3-0.6 1.3 0.1 0.1 1.1 1.1 1.5 1.6 0.3 0.4-0.5 1.1-0.5 1.1 0.5 0.5 0.9 1 1.3 1.5 0.3 0.4 0.3 0.7-0.1 1.1-0.9 0.6-2.2 0.9-3.2 1-0.8 0.1-1.6 0.1-2.4 0.2 0.1 0.7 0.1 1.4 0.2 2.1-0.4 0.2-0.7 0.6-1 0.6z"/>
 <path class="t_shading" d="m1906.5 258.4v-18.8c0.2 0 0.4 0.1 0.6 0.3 0.3 0.4 2.4 3.8 3.1 5.1 0.4 0.7 0.2 1.1-0.6 1.4 0.1 0.1 1.3 1.1 1.7 1.5 0.5 0.6-0.5 1.3-0.6 1.3 0.1 0.1 1.1 1.1 1.5 1.6 0.3 0.4-0.5 1.1-0.5 1.1 0.5 0.5 0.9 1 1.3 1.5 0.3 0.4 0.3 0.7-0.1 1.1-0.9 0.6-2.2 0.9-3.2 1-0.8 0.1-1.6 0.1-2.4 0.2 0.1 0.7 0.1 1.4 0.2 2.1-0.4 0.2-0.7 0.6-1 0.6z"/>
 <path class="t_shading" d="m2191.4 277.9v-38.3c0.4 0 0.7 0.2 1.1 0.7 0.6 0.7 4.9 7.7 6.3 10.4 0.8 1.5 0.4 2.2-1.1 2.9 0.2 0.2 2.6 2.2 3.4 3.1 1 1.1-1 2.6-1.2 2.7 0.2 0.1 2.3 2.2 3.1 3.3 0.6 0.8-0.9 2.2-1 2.3 0.9 1.1 1.9 2.1 2.7 3.1 0.7 0.9 0.6 1.5-0.3 2.2-1.8 1.1-4.6 1.8-6.5 2-1.6 0.2-3.2 0.3-4.9 0.4 0.1 1.5 0.2 2.9 0.3 4.3-0.6 0.1-1.2 0.9-1.9 0.9z"/>
 <path class="t_shading" d="m2414.7 219.4v-24.3c0.3 0 0.5 0.1 0.8 0.4 0.5 0.5 3.6 4.9 4.6 6.6 0.6 1 0.3 1.4-0.8 1.8 0.2 0.1 1.9 1.4 2.5 2 0.7 0.7-0.7 1.6-0.9 1.7 0.1 0.1 1.7 1.4 2.3 2.1 0.5 0.5-0.7 1.4-0.8 1.4 0.7 0.7 1.4 1.3 2 2 0.5 0.6 0.4 0.9-0.2 1.4-1.3 0.7-3.3 1.1-4.7 1.2-1.2 0.1-2.3 0.2-3.5 0.2 0.1 0.9 0.2 1.8 0.2 2.7-0.6 0.3-1.1 0.8-1.5 0.8z"/>
 <path class="t_shading" d="m2621 169.6v-24.3c0.2 0 0.5 0.1 0.7 0.4 0.4 0.5 3 4.9 3.9 6.6 0.5 1 0.3 1.4-0.7 1.8 0.1 0.1 1.6 1.4 2.1 2 0.6 0.7-0.6 1.6-0.8 1.7 0.1 0.1 1.4 1.4 1.9 2.1 0.4 0.5-0.6 1.4-0.7 1.4 0.6 0.7 1.2 1.3 1.7 2 0.4 0.6 0.4 0.9-0.2 1.4-1.2 0.7-2.8 1.1-4.1 1.2-1 0.1-2 0.2-3 0.2 0.1 0.9 0.1 1.8 0.2 2.7-0.2 0.3-0.6 0.8-1 0.8z"/>
 <path class="t_shading" d="m2751.2 222.1v-19.4c0.2 0 0.4 0.1 0.6 0.4 0.3 0.4 2.4 3.9 3.1 5.3 0.4 0.8 0.2 1.1-0.6 1.5 0.1 0.1 1.3 1.1 1.7 1.6 0.5 0.6-0.5 1.3-0.6 1.4 0.1 0.1 1.1 1.1 1.5 1.7 0.3 0.4-0.5 1.1-0.5 1.2 0.5 0.5 0.9 1 1.4 1.6 0.3 0.5 0.3 0.8-0.1 1.1-0.9 0.6-2.3 0.9-3.2 1-0.8 0.1-1.6 0.1-2.4 0.2 0.1 0.7 0.1 1.5 0.2 2.2-0.5-0.2-0.8 0.2-1.1 0.2z"/>
 <path class="t_shading" d="m2889 269.3v-41.8c0.4 0 0.8 0.2 1.2 0.8 0.7 0.8 5.2 8.4 6.8 11.4 0.9 1.6 0.5 2.4-1.2 3.2 0.2 0.2 2.7 2.4 3.6 3.4 1 1.2-1.1 2.8-1.3 3 0.2 0.1 2.4 2.4 3.3 3.6 0.7 0.9-1 2.4-1.1 2.5 1 1.2 2 2.2 2.9 3.4 0.7 1 0.6 1.6-0.3 2.4-2 1.2-4.9 1.9-7 2.2-1.7 0.2-3.4 0.3-5.2 0.4 0.1 1.6 0.2 3.1 0.4 4.7-0.7-0.1-1.4 0.8-2.1 0.8z"/>
 <path class="t_shading" d="m3171.9 220v-20.3c0.2 0 0.4 0.1 0.6 0.4 0.3 0.4 2.6 4.1 3.4 5.5 0.4 0.8 0.2 1.2-0.6 1.5 0.1 0.1 1.4 1.1 1.8 1.7 0.5 0.6-0.5 1.4-0.6 1.4l1.7 1.7c0.3 0.4-0.5 1.2-0.6 1.2 0.5 0.6 1 1.1 1.4 1.7 0.4 0.5 0.3 0.8-0.2 1.2-1 0.6-2.4 0.9-3.5 1-0.9 0.1-1.7 0.1-2.6 0.2 0.1 0.8 0.1 1.5 0.2 2.3-0.3 0.1-0.6 0.5-1 0.5z"/>
 <path class="t_shading" d="m3381.7 161.6v-20.3c0.2 0 0.4 0.1 0.6 0.4 0.3 0.4 2.6 4.1 3.4 5.5 0.4 0.8 0.2 1.2-0.6 1.5 0.1 0.1 1.4 1.1 1.8 1.7 0.5 0.6-0.5 1.4-0.6 1.4l1.7 1.7c0.3 0.4-0.5 1.2-0.6 1.2 0.5 0.6 1 1.1 1.4 1.7 0.4 0.5 0.3 0.8-0.2 1.2-1 0.6-2.4 0.9-3.5 1-0.9 0.1-1.7 0.1-2.6 0.2 0.1 0.8 0.1 1.5 0.2 2.3-0.3 0.1-0.6 0.5-1 0.5z"/>
 <path class="t_shading" d="m3532 288.6 0.1-43.6c0.4 0 0.8 0.3 1.3 0.8 0.7 0.8 5.5 8.7 7.2 11.8 0.9 1.7 0.5 2.5-1.3 3.3 0.2 0.2 2.9 2.5 3.8 3.6 1.1 1.3-1.2 2.9-1.4 3.1 0.2 0.1 2.6 2.5 3.6 3.7 0.7 0.9-1.1 2.5-1.2 2.6 1.1 1.2 2.1 2.3 3.1 3.6 0.8 1 0.7 1.7-0.3 2.5-2.1 1.3-5.2 2-7.4 2.2-1.8 0.2-3.7 0.3-5.5 0.4 0.1 1.7 0.2 3.3 0.4 4.9-0.9 0.2-1.7 1.1-2.4 1.1z"/>
 <path class="t_shading" d="m3644.6 199v-21.1c0.2 0 0.4 0.1 0.6 0.4 0.3 0.4 2.7 4.2 3.5 5.7 0.4 0.8 0.2 1.2-0.6 1.6 0.1 0.1 1.4 1.2 1.9 1.7 0.5 0.6-0.6 1.4-0.7 1.5 0.1 0.1 1.3 1.2 1.7 1.8 0.4 0.4-0.5 1.2-0.6 1.3 0.5 0.6 1 1.1 1.5 1.7 0.4 0.5 0.3 0.8-0.2 1.2-1 0.6-2.5 1-3.6 1.1-0.9 0.1-1.8 0.1-2.7 0.2 0.1 0.8 0.1 1.6 0.2 2.4-0.3 0.1-0.6 0.5-1 0.5z"/>
 <path class="t_shading" d="m3793.3 152.9v-21.1c0.2 0 0.4 0.1 0.6 0.4 0.3 0.4 2.7 4.2 3.5 5.7 0.4 0.8 0.2 1.2-0.6 1.6 0.1 0.1 1.4 1.2 1.9 1.7 0.5 0.6-0.6 1.4-0.7 1.5 0.1 0.1 1.3 1.2 1.7 1.8 0.4 0.4-0.5 1.2-0.6 1.3 0.5 0.6 1 1.1 1.5 1.7 0.4 0.5 0.3 0.8-0.2 1.2-1 0.6-2.5 1-3.6 1.1-0.9 0.1-1.8 0.1-2.7 0.2 0.1 0.8 0.1 1.6 0.2 2.4-0.3 0-0.7 0.5-1 0.5z"/>
 <path class="t_shading" d="m3938.3 283.8 0.1-38.7c0.4 0 0.7 0.2 1.2 0.7 0.6 0.7 4.9 7.8 6.4 10.5 0.8 1.5 0.4 2.2-1.2 2.9 0.2 0.2 2.6 2.2 3.4 3.2 1 1.1-1 2.6-1.2 2.7 0.2 0.1 2.3 2.2 3.2 3.3 0.6 0.8-1 2.3-1.1 2.3 0.9 1.1 1.9 2.1 2.8 3.2 0.7 0.9 0.6 1.5-0.3 2.3-1.9 1.1-4.6 1.8-6.6 2-1.6 0.2-3.3 0.3-4.9 0.4 0.1 1.5 0.2 2.9 0.3 4.4-0.8 0-1.4 0.8-2.1 0.8z"/>
 <path class="t_shading" d="m1436.1 262.2v-36.4c0.4 0 0.7 0.2 1.1 0.7 0.6 0.7 4.6 7.3 6 9.9 0.8 1.4 0.4 2.1-1.1 2.8 0.2 0.2 2.4 2.1 3.2 3 0.9 1.1-1 2.5-1.1 2.6 0.2 0.1 2.2 2.1 3 3.1 0.6 0.8-0.9 2.1-1 2.2 0.9 1 1.8 2 2.6 3 0.7 0.9 0.5 1.4-0.3 2.1-1.8 1.1-4.3 1.7-6.2 1.9-1.5 0.2-3.1 0.2-4.6 0.4 0.1 1.4 0.2 2.7 0.3 4.1-0.7-0.2-1.3 0.6-1.9 0.6z"/>
 <path class="t_shading" d="m907.7 194.1v-40.6c0.4 0 0.8 0.2 1.2 0.8 0.7 0.8 5.2 8.1 6.7 11 0.8 1.6 0.4 2.3-1.2 3.1 0.2 0.2 2.7 2.3 3.6 3.3 1 1.2-1.1 2.8-1.3 2.9 0.2 0.1 2.4 2.3 3.3 3.5 0.7 0.8-1 2.4-1.1 2.4 1 1.1 2 2.2 2.9 3.3 0.7 1 0.6 1.6-0.3 2.4-2 1.2-4.8 1.9-6.9 2.1-1.7 0.2-3.4 0.3-5.2 0.4 0.1 1.6 0.2 3.1 0.4 4.6-0.7-0.1-1.4 0.8-2.1 0.8z"/>
 <path class="t_shading" d="m756.4 218v-20.5c0.2 0 0.4 0.1 0.6 0.4 0.3 0.4 2.6 4.1 3.4 5.6 0.4 0.8 0.2 1.2-0.6 1.6 0.1 0.1 1.4 1.2 1.8 1.7 0.5 0.6-0.5 1.4-0.6 1.5l1.7 1.7c0.3 0.4-0.5 1.2-0.6 1.2 0.5 0.6 1 1.1 1.5 1.7 0.4 0.5 0.3 0.8-0.2 1.2-1 0.6-2.4 0.9-3.5 1.1-0.9 0.1-1.7 0.1-2.6 0.2 0.1 0.8 0.1 1.5 0.2 2.3-0.4-0.1-0.7 0.3-1.1 0.3z"/>
 <path class="t_shading" d="m514.3 222v-29.1c0.3 0 0.6 0.2 0.9 0.5 0.5 0.6 3.7 5.8 4.8 7.9 0.6 1.1 0.3 1.7-0.9 2.2 0.2 0.1 1.9 1.6 2.6 2.4 0.7 0.9-0.8 2-0.9 2.1 0.1 0.1 1.7 1.7 2.4 2.5 0.5 0.6-0.7 1.7-0.8 1.7 0.7 0.8 1.4 1.6 2.1 2.4 0.5 0.7 0.4 1.1-0.2 1.7-1.4 0.9-3.5 1.3-4.9 1.5-1.2 0.1-2.4 0.2-3.7 0.3l0.3 3.3c-0.7 0-1.2 0.6-1.7 0.6z"/>
 <path class="t_shading" d="m330.3 247.2v-24.4c0.2 0 0.5 0.1 0.7 0.5 0.4 0.5 3.1 4.9 4 6.6 0.5 1 0.3 1.4-0.7 1.9 0.1 0.1 1.6 1.4 2.2 2 0.6 0.7-0.6 1.7-0.8 1.7 0.1 0.1 1.5 1.4 2 2.1 0.4 0.5-0.6 1.4-0.7 1.5 0.6 0.7 1.2 1.3 1.7 2 0.4 0.6 0.4 1-0.2 1.4-1.2 0.7-2.9 1.1-4.1 1.3-1 0.1-2 0.2-3.1 0.2 0.1 0.9 0.1 1.8 0.2 2.8-0.4-0.2-0.8 0.4-1.2 0.4z"/>
 <path class="t_shading" d="m225 143.4v-24.4c0.2 0 0.5 0.1 0.7 0.5 0.4 0.5 3.1 4.9 4 6.6 0.5 1 0.3 1.4-0.7 1.9 0.1 0.1 1.6 1.4 2.2 2 0.6 0.7-0.6 1.7-0.8 1.7 0.1 0.1 1.5 1.4 2 2.1 0.4 0.5-0.6 1.4-0.7 1.5 0.6 0.7 1.2 1.3 1.7 2 0.4 0.6 0.4 1-0.2 1.4-1.2 0.7-2.9 1.1-4.1 1.3-1 0.1-2 0.2-3.1 0.2 0.1 0.9 0.1 1.8 0.2 2.8-0.4-0.1-0.8 0.4-1.2 0.4z"/>
 <path class="t_shading" d="m107.3 214.4v-44.4c0.4 0 0.8 0.3 1.3 0.8 0.7 0.8 5.6 8.9 7.3 12.1 0.9 1.7 0.5 2.5-1.3 3.4 0.2 0.2 3 2.5 3.9 3.6 1.1 1.3-1.2 3-1.4 3.1 0.2 0.1 2.6 2.6 3.6 3.8 0.7 0.9-1.1 2.6-1.2 2.6 1.1 1.2 2.2 2.4 3.2 3.6 0.8 1 0.7 1.7-0.3 2.6-2.1 1.3-5.3 2-7.5 2.3-1.9 0.2-3.7 0.3-5.6 0.5 0.1 1.7 0.3 3.3 0.4 5-0.9 0-1.7 1-2.4 1z"/>
 <path class="t_shading" d="m25.8 260.4v-20.4c0.2 0 0.4 0.1 0.6 0.4 0.3 0.4 2.6 4.1 3.4 5.6 0.4 0.8 0.2 1.2-0.6 1.6 0.1 0.1 1.4 1.2 1.8 1.7 0.5 0.6-0.5 1.4-0.6 1.4l1.7 1.7c0.3 0.4-0.5 1.2-0.6 1.2 0.5 0.6 1 1.1 1.5 1.7 0.4 0.5 0.3 0.8-0.2 1.2-1 0.6-2.4 0.9-3.5 1.1-0.9 0.1-1.7 0.1-2.6 0.2 0.1 0.8 0.1 1.5 0.2 2.3-0.4-0.1-0.7 0.3-1.1 0.3z"/>
 <path class="t_shading" d="m4993.3 295.4v-40.6c0.4 0 0.8 0.2 1.2 0.8 0.7 0.8 5.2 8.1 6.7 11 0.8 1.6 0.4 2.3-1.2 3.1 0.2 0.2 2.7 2.3 3.6 3.3 1 1.2-1.1 2.8-1.3 2.9 0.2 0.1 2.4 2.3 3.3 3.5 0.7 0.8-1 2.4-1.1 2.4 1 1.1 2 2.2 2.9 3.3 0.7 1 0.6 1.6-0.3 2.4-2 1.2-4.8 1.9-6.9 2.1-1.7 0.2-3.4 0.3-5.2 0.4 0.1 1.6 0.2 3.1 0.4 4.6-0.7-0.1-1.4 0.8-2.1 0.8z"/>
 <path class="t_shading" d="m5221.3 205v-14.9c0.1 0 0.3 0.1 0.4 0.3 0.2 0.3 1.9 3 2.5 4 0.3 0.6 0.2 0.9-0.4 1.1 0.1 0.1 1 0.8 1.3 1.2 0.4 0.4-0.4 1-0.5 1.1 0.1 0 0.9 0.9 1.2 1.3 0.2 0.3-0.4 0.9-0.4 0.9 0.4 0.4 0.7 0.8 1.1 1.2 0.3 0.3 0.2 0.6-0.1 0.9-0.7 0.4-1.8 0.7-2.5 0.8-0.6 0.1-1.2 0.1-1.9 0.2 0 0.6 0.1 1.1 0.1 1.7-0.3-0.1-0.6 0.2-0.8 0.2z"/>
 <path class="t_shading" d="m5579.9 167.6v-18.8c0.2 0 0.4 0.1 0.6 0.3 0.3 0.4 2.4 3.8 3.1 5.1 0.4 0.7 0.2 1.1-0.6 1.4 0.1 0.1 1.3 1.1 1.7 1.5 0.5 0.6-0.5 1.3-0.6 1.3 0.1 0.1 1.1 1.1 1.5 1.6 0.3 0.4-0.5 1.1-0.5 1.1 0.5 0.5 0.9 1 1.3 1.5 0.3 0.4 0.3 0.7-0.1 1.1-0.9 0.6-2.2 0.9-3.2 1-0.8 0.1-1.6 0.1-2.4 0.2 0.1 0.7 0.1 1.4 0.2 2.1-0.4 0.2-0.7 0.6-1 0.6z"/>
 <path class="t_shading" d="m5738.4 142.9v-18.8c0.2 0 0.4 0.1 0.6 0.3 0.3 0.4 2.4 3.8 3.1 5.1 0.4 0.7 0.2 1.1-0.6 1.4 0.1 0.1 1.3 1.1 1.7 1.5 0.5 0.6-0.5 1.3-0.6 1.3 0.1 0.1 1.1 1.1 1.5 1.6 0.3 0.4-0.5 1.1-0.5 1.1 0.5 0.5 0.9 1 1.3 1.5 0.3 0.4 0.3 0.7-0.1 1.1-0.9 0.6-2.2 0.9-3.2 1-0.8 0.1-1.6 0.1-2.4 0.2 0.1 0.7 0.1 1.4 0.2 2.1-0.4 0.2-0.7 0.6-1 0.6z"/>
 <path class="t_shading" d="m5906.5 258.4v-18.8c0.2 0 0.4 0.1 0.6 0.3 0.3 0.4 2.4 3.8 3.1 5.1 0.4 0.7 0.2 1.1-0.6 1.4 0.1 0.1 1.3 1.1 1.7 1.5 0.5 0.6-0.5 1.3-0.6 1.3 0.1 0.1 1.1 1.1 1.5 1.6 0.3 0.4-0.5 1.1-0.5 1.1 0.5 0.5 0.9 1 1.3 1.5 0.3 0.4 0.3 0.7-0.1 1.1-0.9 0.6-2.2 0.9-3.2 1-0.8 0.1-1.6 0.1-2.4 0.2 0.1 0.7 0.1 1.4 0.2 2.1-0.4 0.2-0.7 0.6-1 0.6z"/>
 <path class="t_shading" d="m6191.4 277.9v-38.3c0.4 0 0.7 0.2 1.1 0.7 0.6 0.7 4.9 7.7 6.3 10.4 0.8 1.5 0.4 2.2-1.1 2.9 0.2 0.2 2.6 2.2 3.4 3.1 1 1.1-1 2.6-1.2 2.7 0.2 0.1 2.3 2.2 3.1 3.3 0.6 0.8-0.9 2.2-1 2.3 0.9 1.1 1.9 2.1 2.7 3.1 0.7 0.9 0.6 1.5-0.3 2.2-1.8 1.1-4.6 1.8-6.5 2-1.6 0.2-3.2 0.3-4.9 0.4 0.1 1.5 0.2 2.9 0.3 4.3-0.6 0.1-1.2 0.9-1.9 0.9z"/>
 <path class="t_shading" d="m6414.7 219.4v-24.3c0.3 0 0.5 0.1 0.8 0.4 0.5 0.5 3.6 4.9 4.6 6.6 0.6 1 0.3 1.4-0.8 1.8 0.2 0.1 1.9 1.4 2.5 2 0.7 0.7-0.7 1.6-0.9 1.7 0.1 0.1 1.7 1.4 2.3 2.1 0.5 0.5-0.7 1.4-0.8 1.4 0.7 0.7 1.4 1.3 2 2 0.5 0.6 0.4 0.9-0.2 1.4-1.3 0.7-3.3 1.1-4.7 1.2-1.2 0.1-2.3 0.2-3.5 0.2 0.1 0.9 0.2 1.8 0.2 2.7-0.6 0.3-1.1 0.8-1.5 0.8z"/>
 <path class="t_shading" d="m6621 169.6v-24.3c0.2 0 0.5 0.1 0.7 0.4 0.4 0.5 3 4.9 3.9 6.6 0.5 1 0.3 1.4-0.7 1.8 0.1 0.1 1.6 1.4 2.1 2 0.6 0.7-0.6 1.6-0.8 1.7 0.1 0.1 1.4 1.4 1.9 2.1 0.4 0.5-0.6 1.4-0.7 1.4 0.6 0.7 1.2 1.3 1.7 2 0.4 0.6 0.4 0.9-0.2 1.4-1.2 0.7-2.8 1.1-4.1 1.2-1 0.1-2 0.2-3 0.2 0.1 0.9 0.1 1.8 0.2 2.7-0.2 0.3-0.6 0.8-1 0.8z"/>
 <path class="t_shading" d="m6751.2 222.1v-19.4c0.2 0 0.4 0.1 0.6 0.4 0.3 0.4 2.4 3.9 3.1 5.3 0.4 0.8 0.2 1.1-0.6 1.5 0.1 0.1 1.3 1.1 1.7 1.6 0.5 0.6-0.5 1.3-0.6 1.4 0.1 0.1 1.1 1.1 1.5 1.7 0.3 0.4-0.5 1.1-0.5 1.2 0.5 0.5 0.9 1 1.4 1.6 0.3 0.5 0.3 0.8-0.1 1.1-0.9 0.6-2.3 0.9-3.2 1-0.8 0.1-1.6 0.1-2.4 0.2 0.1 0.7 0.1 1.5 0.2 2.2-0.5-0.2-0.8 0.2-1.1 0.2z"/>
 <path class="t_shading" d="m6889 269.3v-41.8c0.4 0 0.8 0.2 1.2 0.8 0.7 0.8 5.2 8.4 6.8 11.4 0.9 1.6 0.5 2.4-1.2 3.2 0.2 0.2 2.7 2.4 3.6 3.4 1 1.2-1.1 2.8-1.3 3 0.2 0.1 2.4 2.4 3.3 3.6 0.7 0.9-1 2.4-1.1 2.5 1 1.2 2 2.2 2.9 3.4 0.7 1 0.6 1.6-0.3 2.4-2 1.2-4.9 1.9-7 2.2-1.7 0.2-3.4 0.3-5.2 0.4 0.1 1.6 0.2 3.1 0.4 4.7-0.7-0.1-1.4 0.8-2.1 0.8z"/>
 <path class="t_shading" d="m7171.9 220v-20.3c0.2 0 0.4 0.1 0.6 0.4 0.3 0.4 2.6 4.1 3.4 5.5 0.4 0.8 0.2 1.2-0.6 1.5 0.1 0.1 1.4 1.1 1.8 1.7 0.5 0.6-0.5 1.4-0.6 1.4l1.7 1.7c0.3 0.4-0.5 1.2-0.6 1.2 0.5 0.6 1 1.1 1.4 1.7 0.4 0.5 0.3 0.8-0.2 1.2-1 0.6-2.4 0.9-3.5 1-0.9 0.1-1.7 0.1-2.6 0.2 0.1 0.8 0.1 1.5 0.2 2.3-0.3 0.1-0.6 0.5-1 0.5z"/>
 <path class="t_shading" d="m7381.7 161.6v-20.3c0.2 0 0.4 0.1 0.6 0.4 0.3 0.4 2.6 4.1 3.4 5.5 0.4 0.8 0.2 1.2-0.6 1.5 0.1 0.1 1.4 1.1 1.8 1.7 0.5 0.6-0.5 1.4-0.6 1.4l1.7 1.7c0.3 0.4-0.5 1.2-0.6 1.2 0.5 0.6 1 1.1 1.4 1.7 0.4 0.5 0.3 0.8-0.2 1.2-1 0.6-2.4 0.9-3.5 1-0.9 0.1-1.7 0.1-2.6 0.2 0.1 0.8 0.1 1.5 0.2 2.3-0.3 0.1-0.6 0.5-1 0.5z"/>
 <path class="t_shading" d="m7532 288.6 0.1-43.6c0.4 0 0.8 0.3 1.3 0.8 0.7 0.8 5.5 8.7 7.2 11.8 0.9 1.7 0.5 2.5-1.3 3.3 0.2 0.2 2.9 2.5 3.8 3.6 1.1 1.3-1.2 2.9-1.4 3.1 0.2 0.1 2.6 2.5 3.6 3.7 0.7 0.9-1.1 2.5-1.2 2.6 1.1 1.2 2.1 2.3 3.1 3.6 0.8 1 0.7 1.7-0.3 2.5-2.1 1.3-5.2 2-7.4 2.2-1.8 0.2-3.7 0.3-5.5 0.4 0.1 1.7 0.2 3.3 0.4 4.9-0.9 0.2-1.7 1.1-2.4 1.1z"/>
 <path class="t_shading" d="m7644.6 199v-21.1c0.2 0 0.4 0.1 0.6 0.4 0.3 0.4 2.7 4.2 3.5 5.7 0.4 0.8 0.2 1.2-0.6 1.6 0.1 0.1 1.4 1.2 1.9 1.7 0.5 0.6-0.6 1.4-0.7 1.5 0.1 0.1 1.3 1.2 1.7 1.8 0.4 0.4-0.5 1.2-0.6 1.3 0.5 0.6 1 1.1 1.5 1.7 0.4 0.5 0.3 0.8-0.2 1.2-1 0.6-2.5 1-3.6 1.1-0.9 0.1-1.8 0.1-2.7 0.2 0.1 0.8 0.1 1.6 0.2 2.4-0.3 0.1-0.6 0.5-1 0.5z"/>
 <path class="t_shading" d="m7793.3 152.9v-21.1c0.2 0 0.4 0.1 0.6 0.4 0.3 0.4 2.7 4.2 3.5 5.7 0.4 0.8 0.2 1.2-0.6 1.6 0.1 0.1 1.4 1.2 1.9 1.7 0.5 0.6-0.6 1.4-0.7 1.5 0.1 0.1 1.3 1.2 1.7 1.8 0.4 0.4-0.5 1.2-0.6 1.3 0.5 0.6 1 1.1 1.5 1.7 0.4 0.5 0.3 0.8-0.2 1.2-1 0.6-2.5 1-3.6 1.1-0.9 0.1-1.8 0.1-2.7 0.2 0.1 0.8 0.1 1.6 0.2 2.4-0.3 0-0.7 0.5-1 0.5z"/>
 <path class="t_shading" d="m7938.3 283.8 0.1-38.7c0.4 0 0.7 0.2 1.2 0.7 0.6 0.7 4.9 7.8 6.4 10.5 0.8 1.5 0.4 2.2-1.2 2.9 0.2 0.2 2.6 2.2 3.4 3.2 1 1.1-1 2.6-1.2 2.7 0.2 0.1 2.3 2.2 3.2 3.3 0.6 0.8-1 2.3-1.1 2.3 0.9 1.1 1.9 2.1 2.8 3.2 0.7 0.9 0.6 1.5-0.3 2.3-1.9 1.1-4.6 1.8-6.6 2-1.6 0.2-3.3 0.3-4.9 0.4 0.1 1.5 0.2 2.9 0.3 4.4-0.8 0-1.4 0.8-2.1 0.8z"/>
 <path class="t_shading" d="m5436.1 262.2v-36.4c0.4 0 0.7 0.2 1.1 0.7 0.6 0.7 4.6 7.3 6 9.9 0.8 1.4 0.4 2.1-1.1 2.8 0.2 0.2 2.4 2.1 3.2 3 0.9 1.1-1 2.5-1.1 2.6 0.2 0.1 2.2 2.1 3 3.1 0.6 0.8-0.9 2.1-1 2.2 0.9 1 1.8 2 2.6 3 0.7 0.9 0.5 1.4-0.3 2.1-1.8 1.1-4.3 1.7-6.2 1.9-1.5 0.2-3.1 0.2-4.6 0.4 0.1 1.4 0.2 2.7 0.3 4.1-0.7-0.2-1.3 0.6-1.9 0.6z"/>
 <path class="t_shading" d="m4907.7 194.1v-40.6c0.4 0 0.8 0.2 1.2 0.8 0.7 0.8 5.2 8.1 6.7 11 0.8 1.6 0.4 2.3-1.2 3.1 0.2 0.2 2.7 2.3 3.6 3.3 1 1.2-1.1 2.8-1.3 2.9 0.2 0.1 2.4 2.3 3.3 3.5 0.7 0.8-1 2.4-1.1 2.4 1 1.1 2 2.2 2.9 3.3 0.7 1 0.6 1.6-0.3 2.4-2 1.2-4.8 1.9-6.9 2.1-1.7 0.2-3.4 0.3-5.2 0.4 0.1 1.6 0.2 3.1 0.4 4.6-0.7-0.1-1.4 0.8-2.1 0.8z"/>
 <path class="t_shading" d="m4756.4 218v-20.5c0.2 0 0.4 0.1 0.6 0.4 0.3 0.4 2.6 4.1 3.4 5.6 0.4 0.8 0.2 1.2-0.6 1.6 0.1 0.1 1.4 1.2 1.8 1.7 0.5 0.6-0.5 1.4-0.6 1.5l1.7 1.7c0.3 0.4-0.5 1.2-0.6 1.2 0.5 0.6 1 1.1 1.5 1.7 0.4 0.5 0.3 0.8-0.2 1.2-1 0.6-2.4 0.9-3.5 1.1-0.9 0.1-1.7 0.1-2.6 0.2 0.1 0.8 0.1 1.5 0.2 2.3-0.4-0.1-0.7 0.3-1.1 0.3z"/>
 <path class="t_shading" d="m4514.3 222v-29.1c0.3 0 0.6 0.2 0.9 0.5 0.5 0.6 3.7 5.8 4.8 7.9 0.6 1.1 0.3 1.7-0.9 2.2 0.2 0.1 1.9 1.6 2.6 2.4 0.7 0.9-0.8 2-0.9 2.1 0.1 0.1 1.7 1.7 2.4 2.5 0.5 0.6-0.7 1.7-0.8 1.7 0.7 0.8 1.4 1.6 2.1 2.4 0.5 0.7 0.4 1.1-0.2 1.7-1.4 0.9-3.5 1.3-4.9 1.5-1.2 0.1-2.4 0.2-3.7 0.3l0.3 3.3c-0.7 0-1.2 0.6-1.7 0.6z"/>
 <path class="t_shading" d="m4330.3 247.2v-24.4c0.2 0 0.5 0.1 0.7 0.5 0.4 0.5 3.1 4.9 4 6.6 0.5 1 0.3 1.4-0.7 1.9 0.1 0.1 1.6 1.4 2.2 2 0.6 0.7-0.6 1.7-0.8 1.7 0.1 0.1 1.5 1.4 2 2.1 0.4 0.5-0.6 1.4-0.7 1.5 0.6 0.7 1.2 1.3 1.7 2 0.4 0.6 0.4 1-0.2 1.4-1.2 0.7-2.9 1.1-4.1 1.3-1 0.1-2 0.2-3.1 0.2 0.1 0.9 0.1 1.8 0.2 2.8-0.4-0.2-0.8 0.4-1.2 0.4z"/>
 <path class="t_shading" d="m4225 143.4v-24.4c0.2 0 0.5 0.1 0.7 0.5 0.4 0.5 3.1 4.9 4 6.6 0.5 1 0.3 1.4-0.7 1.9 0.1 0.1 1.6 1.4 2.2 2 0.6 0.7-0.6 1.7-0.8 1.7 0.1 0.1 1.5 1.4 2 2.1 0.4 0.5-0.6 1.4-0.7 1.5 0.6 0.7 1.2 1.3 1.7 2 0.4 0.6 0.4 1-0.2 1.4-1.2 0.7-2.9 1.1-4.1 1.3-1 0.1-2 0.2-3.1 0.2 0.1 0.9 0.1 1.8 0.2 2.8-0.4-0.1-0.8 0.4-1.2 0.4z"/>
 <path class="t_shading" d="m4107.3 214.4v-44.4c0.4 0 0.8 0.3 1.3 0.8 0.7 0.8 5.6 8.9 7.3 12.1 0.9 1.7 0.5 2.5-1.3 3.4 0.2 0.2 3 2.5 3.9 3.6 1.1 1.3-1.2 3-1.4 3.1 0.2 0.1 2.6 2.6 3.6 3.8 0.7 0.9-1.1 2.6-1.2 2.6 1.1 1.2 2.2 2.4 3.2 3.6 0.8 1 0.7 1.7-0.3 2.6-2.1 1.3-5.3 2-7.5 2.3-1.9 0.2-3.7 0.3-5.6 0.5 0.1 1.7 0.3 3.3 0.4 5-0.9 0-1.7 1-2.4 1z"/>
 <path class="t_shading" d="m4025.8 260.4v-20.4c0.2 0 0.4 0.1 0.6 0.4 0.3 0.4 2.6 4.1 3.4 5.6 0.4 0.8 0.2 1.2-0.6 1.6 0.1 0.1 1.4 1.2 1.8 1.7 0.5 0.6-0.5 1.4-0.6 1.4l1.7 1.7c0.3 0.4-0.5 1.2-0.6 1.2 0.5 0.6 1 1.1 1.5 1.7 0.4 0.5 0.3 0.8-0.2 1.2-1 0.6-2.4 0.9-3.5 1.1-0.9 0.1-1.7 0.1-2.6 0.2 0.1 0.8 0.1 1.5 0.2 2.3-0.4-0.1-0.7 0.3-1.1 0.3z"/>
</svg>
