<?xml version="1.0" encoding="UTF-8" standalone="no"?>
<svg
   xmlns:dc="http://purl.org/dc/elements/1.1/"
   xmlns:cc="http://creativecommons.org/ns#"
   xmlns:rdf="http://www.w3.org/1999/02/22-rdf-syntax-ns#"
   xmlns:svg="http://www.w3.org/2000/svg"
   xmlns="http://www.w3.org/2000/svg"
   xmlns:sodipodi="http://sodipodi.sourceforge.net/DTD/sodipodi-0.dtd"
   xmlns:inkscape="http://www.inkscape.org/namespaces/inkscape"
   width="59.53125mm"
   height="76.279373mm"
   viewBox="0 0 59.53125 76.279373"
   version="1.1"
   id="svg8"
   inkscape:version="1.0.2 (e86c870879, 2021-01-15)"
   sodipodi:docname="ucalgary.svg">
  <defs
     id="defs2" />
  <sodipodi:namedview
     id="base"
     pagecolor="#ffffff"
     bordercolor="#666666"
     borderopacity="1.0"
     inkscape:pageopacity="0.0"
     inkscape:pageshadow="2"
     inkscape:zoom="0.35"
     inkscape:cx="139.47143"
     inkscape:cy="284.28571"
     inkscape:document-units="mm"
     inkscape:current-layer="g100"
     inkscape:document-rotation="0"
     showgrid="false"
     inkscape:window-width="1920"
     inkscape:window-height="1009"
     inkscape:window-x="-8"
     inkscape:window-y="-8"
     inkscape:window-maximized="1" />
  <metadata
     id="metadata5">
    <rdf:RDF>
      <cc:Work
         rdf:about="">
        <dc:format>image/svg+xml</dc:format>
        <dc:type
           rdf:resource="http://purl.org/dc/dcmitype/StillImage" />
        <dc:title></dc:title>
      </cc:Work>
    </rdf:RDF>
  </metadata>
  <g
     inkscape:label="Layer 1"
     inkscape:groupmode="layer"
     id="layer1"
     transform="translate(-68.931518,-72.949405)">
    <g
       id="g100"
       transform="matrix(0.26458333,0,0,0.26458333,13.607144,53.846489)">
	
	
	
	
	
	
	
	
	
	
	
	
	
	
	
	
	
	
	
	<path
   d="M 321.6,72.2 C 242,72.2 209.1,98.9 209.1,98.9 v 119.7 c 0,66.3 87.6,135 112.5,141.9 24.9,-6.9 112.5,-75.6 112.5,-141.9 V 98.9 c 0,0 -32.9,-26.7 -112.5,-26.7 z"
   id="path50" />

	<path
   class="st0"
   d="M 321.7,262"
   id="path52" />

	<path
   class="st0"
   d="m 397.8,206.8 -23.4,38.7 c 8.8,-4 22.1,-14.1 23.4,-38.7 z"
   id="path54" />

	<path
   class="st0"
   d="m 269,245.5 -23.4,-38.7 c 1.3,24.6 14.5,34.7 23.4,38.7 z"
   id="path56" />

	<path
   class="st0"
   d="m 307.8,220.4 c 0.5,0.6 0.8,1.4 0.8,2.3 0,2.1 -1.8,3.9 -3.9,3.9 -2.2,0 -4,-1.7 -4,-3.9 0,-1.2 0.5,-2.1 1.4,-2.8 -3.1,-0.6 -6.4,-2.2 -6.4,-2.2 0.7,2.3 2.4,10.9 8.1,11.6 7.1,0.8 8.9,-5.8 8.9,-5.8 0,0 -1.2,-2.1 -4.9,-3.1 z"
   id="path58" />

	<path
   class="st0"
   d="m 341.5,219.8 c 0.8,0.7 1.4,1.7 1.4,2.8 0,2.1 -1.8,3.9 -4,3.9 -2.2,0 -3.9,-1.7 -3.9,-3.9 0,-0.9 0.4,-1.7 0.8,-2.3 -3.6,1 -4.7,3.2 -4.7,3.2 0,0 1.8,6.5 8.9,5.8 5.7,-0.6 7.4,-9.3 8.1,-11.6 -0.2,0 -3.4,1.6 -6.6,2.1 z"
   id="path60" />

	<path
   class="st0"
   d="m 348.2,199.7 c -2.3,-1.9 -5.3,0.5 -3,3 1.9,2.1 3.2,3.6 2.3,5.1 -1.1,2.1 -11.8,1.6 -25.6,6.8 -13.8,-5.2 -24.5,-4.7 -25.6,-6.8 -0.8,-1.6 0.5,-3 2.3,-5.1 2.3,-2.6 -0.7,-5 -3,-3 -1.9,1.6 -5.5,6.5 -4.2,9.8 2,5.2 14.2,3.6 30.6,10.4 v 0 c 0,0 0,0 0.1,0 0,0 0,0 0.1,0 v 0 c 16.2,-6.7 28.5,-5.1 30.6,-10.4 0.9,-3.3 -2.7,-8.2 -4.6,-9.8 z"
   id="path62" />

	<path
   class="st0"
   d="m 333.7,268.1 c -2.1,-0.8 -5.9,-3 -6.9,-6.9 -1,-3.5 0.4,-5.9 1.9,-6.3 1.5,-0.4 3.1,0.6 2.5,2.5 -0.5,1.4 -1.9,2.1 -2.5,2.4 -0.9,0.5 -0.1,1.7 1,1.5 2.5,-0.5 3.9,-3.2 3.8,-5.1 -0.1,-3 -3.5,-3.7 -5.4,-3.3 -2.9,0.6 -5,3.4 -3.8,8.4 1.2,4.7 5.3,7.3 7.5,8.2 -1.9,0.8 -6,1.4 -10,1.7 -3.9,-0.3 -8.1,-0.9 -10,-1.7 2.2,-1 6.3,-3.6 7.5,-8.2 1.2,-5 -0.9,-7.8 -3.8,-8.4 -1.9,-0.4 -5.2,0.3 -5.4,3.3 -0.1,1.9 1.4,4.6 3.8,5.1 1.1,0.2 1.9,-1 1,-1.5 -0.5,-0.3 -2,-1 -2.5,-2.4 -0.6,-1.8 1,-2.8 2.5,-2.5 1.6,0.4 2.9,2.8 1.9,6.3 -1.1,3.8 -4.9,6 -6.9,6.9 -1.8,0.7 -2.1,2.5 -0.9,3.2 3.7,2.1 9.2,2.6 12.6,2.7 v 0 c 0.1,0 0.2,0 0.3,0 0.1,0 0.2,0 0.3,0 v 0 c 3.4,-0.1 8.8,-0.5 12.6,-2.7 0.9,-0.7 0.7,-2.5 -1.1,-3.2 z"
   id="path64" />

	<path
   class="st0"
   d="m 321.9,110.1 c 1,-0.1 2.1,-0.5 3.1,-1.1 v 0 c 0.1,-0.1 0.3,-0.3 0.5,-0.3 1.1,-1 3.2,-3.9 3.9,-5.2 0.1,-0.3 0.1,-0.5 0,-0.8 -0.3,-0.6 -1,-1.3 -1.2,-1.4 -1,-0.3 -11.5,-0.3 -12.5,0 v 0 c 0,0 -0.1,0 -0.2,0.1 -0.5,0.3 -1.4,1.3 -1,2 0.6,1.2 2.9,4.3 4,5.3 0.9,0.8 2.2,1.2 3.4,1.4 z"
   id="path66" />

	<path
   class="st0"
   d="m 313.9,115.2 c 0.1,-1 0.2,-2.1 -0.1,-3.2 v 0 c -0.1,-0.2 -0.1,-0.3 -0.2,-0.5 -0.6,-1.3 -2.9,-4.1 -4,-5.1 -0.2,-0.2 -0.5,-0.3 -0.8,-0.3 -0.8,0.1 -1.6,0.5 -1.7,0.7 -0.6,0.8 -3.9,10.4 -3.9,11.4 v 0 c 0,0 0,0.1 0.1,0.2 0.2,0.5 0.8,1.7 1.7,1.6 1.4,-0.1 5.2,-1.4 6.5,-2.1 1,-0.6 1.8,-1.7 2.4,-2.7 z"
   id="path68" />

	<path
   class="st0"
   d="m 316.2,124.1 c -0.9,-0.4 -2,-0.8 -3.2,-0.8 v 0 c -0.2,0 -0.4,0 -0.6,0.1 -1.5,0.2 -5,1.5 -6.3,2.2 -0.3,0.1 -0.4,0.3 -0.5,0.6 -0.2,0.7 0,1.6 0.1,1.7 0.6,0.8 9.1,6.8 10.1,7.1 v 0 c 0,0 0,0 0.2,0 0.6,0 1.9,-0.3 2.1,-1.1 0.3,-1.3 0.3,-5.2 -0.1,-6.7 0,-1.2 -0.9,-2.3 -1.8,-3.1 z"
   id="path70" />

	<path
   class="st0"
   d="m 325.9,124.6 c -0.7,0.7 -1.5,1.6 -1.8,2.7 v 0 c -0.1,0.2 -0.1,0.3 -0.1,0.5 -0.3,1.4 -0.1,5.1 0.1,6.5 0.1,0.3 0.3,0.5 0.5,0.7 0.6,0.4 1.6,0.5 1.8,0.4 1,-0.3 9.5,-6.2 10.1,-7.1 v 0 c 0,0 0.1,0 0.1,-0.1 0.2,-0.5 0.3,-1.9 -0.4,-2.3 -1.2,-0.6 -5,-1.9 -6.5,-2.1 -1.5,-0.2 -2.7,0.3 -3.8,0.8 z"
   id="path72" />

	<path
   class="st0"
   d="m 329.3,116 c 0.5,0.8 1.1,1.8 2.1,2.5 v 0 c 0.1,0.1 0.3,0.2 0.5,0.3 1.3,0.7 5,1.7 6.5,1.9 0.3,0.1 0.5,-0.1 0.8,-0.3 0.6,-0.5 1,-1.3 1,-1.5 0,-1 -3.2,-10.6 -3.8,-11.5 v 0 c 0,0 -0.1,-0.1 -0.1,-0.1 -0.6,-0.3 -1.9,-0.8 -2.4,-0.3 -1,0.9 -3.4,4 -4.1,5.3 -0.7,1.2 -0.6,2.5 -0.5,3.7 z"
   id="path74" />

	<path
   class="st0"
   d="m 327.7,116.8 c -0.3,-0.5 -0.7,-0.9 -1.2,-1.2 0.1,-0.4 0.1,-0.7 0,-1.1 -0.1,-0.9 -0.6,-1.6 -1.4,-2.2 -1.2,-0.8 -3,-0.7 -4.1,0.1 -1.2,-0.5 -2.6,-0.5 -3.7,0.2 -0.7,0.5 -1.2,1.3 -1.4,2.2 -0.1,0.6 0,1.1 0.2,1.6 -0.3,0.3 -0.5,0.5 -0.7,0.8 -0.5,0.8 -0.5,1.7 -0.2,2.6 0.5,1.4 1.8,2.3 3.3,2.3 0.1,0 0.1,0 0.1,0 0.6,1.1 1.7,1.9 3.1,1.9 1.6,0 2.8,-1 3.3,-2.4 1.3,-0.2 2.4,-1 2.8,-2.3 0.4,-0.8 0.3,-1.7 -0.1,-2.5 z m -8.9,3.7 c -0.6,0.2 -1.3,-0.1 -1.5,-0.7 -0.2,-0.6 0.1,-1.2 0.7,-1.4 0.6,-0.2 1.3,0.1 1.5,0.7 0.2,0.6 -0.1,1.2 -0.7,1.4 z m 0.6,-4 c -0.5,0.4 -1.3,0.3 -1.6,-0.3 -0.4,-0.5 -0.3,-1.2 0.3,-1.6 0.5,-0.4 1.2,-0.3 1.6,0.3 0.4,0.5 0.2,1.2 -0.3,1.6 z m 2.7,5.6 c -0.6,0 -1.2,-0.5 -1.2,-1.1 0,-0.6 0.5,-1.1 1.2,-1.1 0.6,0 1.2,0.5 1.2,1.1 0,0.6 -0.5,1.1 -1.2,1.1 z m -0.1,-6.5 c -0.5,-0.3 -0.6,-1 -0.3,-1.6 0.3,-0.6 1.1,-0.6 1.6,-0.3 0.5,0.4 0.6,1.1 0.3,1.6 -0.4,0.6 -1.1,0.6 -1.6,0.3 z m 2.4,3.5 c -0.6,-0.1 -1,-0.8 -0.8,-1.4 0.2,-0.6 0.8,-0.9 1.5,-0.7 0.6,0.2 1,0.8 0.7,1.4 -0.1,0.5 -0.8,0.8 -1.4,0.7 z"
   id="path76" />

	<path
   class="st0"
   d="m 259.5,104.7 c -3.2,-3 -5,-3.7 -6,-3.7 -0.5,0 -1.2,0.2 -2.3,1.4 -0.3,0.3 -0.6,0.6 -0.8,0.9 -1.6,1.7 -3.4,4 -6.8,4 -1.2,0 -2.5,-0.3 -3.9,-1 v 25.6 c 1.3,2.2 2.6,3.5 3.7,3.5 0.6,0 1.6,-0.3 3.2,-2.1 3.8,-4 8.4,-4.8 12.9,-2.1 z"
   id="path78" />

	<path
   class="st0"
   d="m 279.9,107.3 c -3.3,0 -5.2,-2.3 -6.8,-4 -0.3,-0.3 -0.6,-0.6 -0.8,-0.9 -1.1,-1.2 -1.8,-1.4 -2.3,-1.4 -1,0 -2.8,0.6 -6,3.7 v 26.5 c 1.8,-1.1 3.6,-1.6 5.4,-1.6 2.7,0 5.2,1.2 7.6,3.7 1.6,1.7 2.7,2.1 3.2,2.1 1.1,0 2.4,-1.3 3.7,-3.5 v -25.6 c -1.4,0.7 -2.8,1 -4,1"
   id="path80" />

	<path
   class="st0"
   d="m 383.8,131.3 c 4.7,-2.7 9.2,-1.9 12.9,2.1 1.6,1.7 2.7,2.1 3.2,2.1 1.1,0 2.4,-1.3 3.7,-3.5 v -25.6 c -1.4,0.6 -2.7,1 -3.9,1 -3.4,0 -5.2,-2.3 -6.8,-4 -0.3,-0.3 -0.5,-0.6 -0.8,-0.9 -1.1,-1.2 -1.7,-1.4 -2.3,-1.4 -1,0 -2.8,0.6 -6,3.7 z"
   id="path82" />

	<path
   class="st0"
   d="m 363.4,107.3 c -1.2,0 -2.5,-0.3 -3.9,-1 v 25.6 c 1.3,2.2 2.6,3.5 3.7,3.5 0.6,0 1.6,-0.3 3.2,-2.1 2.3,-2.5 4.9,-3.7 7.6,-3.7 1.8,0 3.6,0.5 5.4,1.6 v -26.5 c -3.2,-3 -5,-3.7 -6,-3.7 -0.5,0 -1.2,0.2 -2.3,1.4 -0.3,0.3 -0.5,0.6 -0.8,0.9 -1.6,1.8 -3.5,4 -6.9,4"
   id="path84" />

	<path
   class="st0"
   d="m 295.4,185.2 c -8.2,-2.8 -25.1,-11.2 -32.2,-31 -1.8,-5.1 -4.5,-4.3 -4,1.1 1.3,14.2 10.4,31.6 29.3,39.5 8.2,3.4 12.7,-7.6 6.9,-9.6 z"
   id="path86" />

	<path
   class="st0"
   d="m 348.2,185.2 c 8.2,-2.8 25.1,-11.2 32.2,-31 1.8,-5.1 4.5,-4.3 4,1.1 -1.3,14.2 -10.4,31.6 -29.3,39.5 -8.2,3.4 -12.8,-7.6 -6.9,-9.6 z"
   id="path88" />

	<path
   class="st0"
   d="m 343,181.2 c 1.1,-0.3 2.7,-0.6 4.6,-1.2 5.1,-1.9 14.1,-6.5 21.1,-15.7 -16,-3.1 -32.2,-4.8 -46.8,-4.8 -14.7,0 -31.1,1.7 -47.1,4.9 7.3,9.5 16.8,14 21.7,15.9 1.6,0.5 2.9,0.8 3.9,1 2.3,0.5 4.6,0.8 7.4,-1.6 2.8,-2.4 3.4,-3.8 13.9,-3.8 10.5,0 11,1.4 13.9,3.8 2.8,2.3 5.1,1.9 7.4,1.5 z"
   id="path90" />

	<path
   class="st0"
   d="m 386.7,168.4 c -3.2,8.9 -9.1,18 -18.4,24.9 7.4,2.3 16.6,2.4 23,-1.8 -2.1,5.5 -8.9,12.7 -13.7,17.3 -0.9,-0.6 -1.7,-1.4 -2.4,-2.1 -1.9,-2.1 -3.8,-0.3 -2.4,1.5 0.5,0.6 1.7,2.3 2.3,2.8 -1.4,1.4 -2.5,2.3 -2.8,2.5 -1,-0.6 -2,-1.5 -2.7,-2.3 -1.9,-2.1 -3.8,-0.3 -2.4,1.5 0.5,0.6 1.7,2.4 2.4,2.9 -1.2,1 -2.5,2 -3.7,2.8 -2.5,-3.1 -5,-6.3 -9.1,-4.3 -4.2,2.1 0,5 0,9.2 0,16.8 -10.6,23 -13.1,30.2 -2.7,7.1 -5.1,19.8 -7.2,23.3 -2.1,3.4 -10.8,7.3 -14.9,4.1 -4,3.2 -12.9,-0.6 -14.9,-4.1 -2,-3.5 -4.8,-16.2 -7.4,-23.3 -2.6,-7.1 -12.9,-13.3 -12.9,-30.2 0,-4.2 4.1,-7.1 0,-9.2 -3.9,-2 -6.6,1.2 -9.1,4.3 -1.2,-0.8 -2.5,-1.8 -3.7,-2.8 0.7,-0.5 1.9,-2.3 2.4,-2.9 1.4,-1.7 -0.5,-3.6 -2.4,-1.5 -0.7,0.8 -1.7,1.7 -2.7,2.3 -0.3,-0.3 -1.4,-1.2 -2.8,-2.5 0.7,-0.6 1.9,-2.3 2.3,-2.8 1.4,-1.7 -0.5,-3.6 -2.4,-1.5 -0.6,0.7 -1.6,1.4 -2.4,2.1 -4.9,-4.7 -11.6,-11.8 -13.7,-17.3 6.6,4.3 15.1,4.1 22.6,1.6 -9,-6.8 -14.8,-15.8 -18,-24.5 -14.2,3.9 -27.6,9 -38.5,15.1 v 35.7 c 0,57.7 82.5,124.5 103.7,130.4 21.2,-6 103.2,-72.7 103.2,-130.4 v -36.1 c -10.6,-5.9 -24,-11 -38.2,-14.9 z m 5,106.9 c -4.5,3.6 -8,6.1 -10.9,8.1 -6.2,4.3 -8.6,6.3 -8.4,9.5 l 1.1,13.9 -8.2,-3.8 c -6.4,-2.8 -9.4,-6.7 -10,-12.9 -0.8,-9.6 5.1,-19.7 15.9,-26.9 2.6,-1.7 4.9,-2.9 6.7,-3.8 1.8,-0.9 3.5,-1.9 3.7,-2.4 0.4,-1.1 -1.7,-2.8 -7.6,-5.5 -0.6,-0.3 -1.7,-0.7 -2.7,-1.2 l -49.8,82.1 -49.8,-82.1 c -1,0.5 -2.1,0.9 -2.7,1.2 -6,2.7 -8,4.4 -7.6,5.5 0.1,0.5 1.9,1.5 3.7,2.4 1.9,0.9 4.1,2.1 6.7,3.8 10.9,7.3 16.8,17.3 15.9,26.9 -0.6,6.2 -3.6,10.1 -10,12.9 l -8.2,3.8 1.1,-13.9 c 0.3,-3.2 -2.1,-5.2 -8.4,-9.5 -2.8,-2 -6.3,-4.5 -10.9,-8.1 -27.8,-22.4 -28.7,-50.6 -20.6,-62.6 2.7,-3.9 10.4,-12.6 10.4,-12.6 l -1.3,-2 c -2.8,-0.3 -5,-2.6 -5,-5.5 0,-3 2.5,-5.6 5.5,-5.6 3,0 5.5,2.5 5.5,5.6 0,0.6 -0.1,1.2 -0.3,1.7 0.1,0.1 0.1,0.1 0.1,0.2 l 75.6,126.6 75.6,-126.6 c 0,-0.1 0.1,-0.1 0.1,-0.2 -0.2,-0.5 -0.3,-1.1 -0.3,-1.7 0,-3 2.5,-5.6 5.6,-5.6 3,0 5.5,2.5 5.5,5.6 0,2.8 -2.2,5.2 -5,5.5 l -1.3,2 c 0.1,0.1 7.7,8.6 10.4,12.6 8.7,11.9 7.8,40.2 -20.1,62.6 z"
   id="path92" />

	<path
   class="st1"
   d="m 321.6,80.8 c -76.4,0 -103.4,23.4 -103.4,23.4 v 68.7 c 10.4,-5.3 22.8,-9.7 36.1,-13.2 -0.3,-1.4 -0.5,-2.7 -0.6,-4 -0.3,-3.7 0.3,-6.5 2.1,-8.4 1.2,-1.4 2.9,-2.1 4.7,-2.1 1.9,0 5.6,0.9 7.8,7.1 0.5,1.4 1,2.7 1.6,3.9 17.7,-3.6 35.6,-5.4 51.7,-5.4 16.1,0 34.3,1.9 51.9,5.4 0.6,-1.2 1.1,-2.5 1.6,-3.9 2.2,-6.1 5.8,-7.1 7.8,-7.1 1.8,0 3.5,0.8 4.7,2.1 1.7,1.9 2.4,4.7 2.1,8.4 -0.1,1.3 -0.3,2.7 -0.6,4 13.2,3.5 25.6,7.9 35.9,13.1 v -68.7 c 0.1,0.1 -27.1,-23.3 -103.4,-23.3 z m -31.5,60.4 -10.4,-1.6 c -0.2,0 -0.3,-0.1 -0.5,-0.1 l -13.7,-2.1 v 2.3 h -3.7 -3.7 v -2.4 l -24.7,5.2 v -37.9 l 1.9,-0.5 V 98 l 3.6,2.6 c 2.5,1.9 4,2.3 4.8,2.3 1.2,0 2.1,-0.9 3.4,-2.5 0.3,-0.3 0.6,-0.7 0.9,-1 1.7,-1.8 3.5,-2.7 5.6,-2.7 2.4,0 5,1.4 8.2,4.1 3.2,-2.8 5.8,-4.1 8.2,-4.1 2.1,0 3.8,0.9 5.6,2.7 0.3,0.3 0.6,0.7 0.9,1 1.4,1.6 2.2,2.5 3.4,2.5 0.8,0 2.3,-0.4 4.8,-2.3 l 3.6,-2.6 v 6.1 l 1.9,0.5 v 36.6 z m 55.2,-16.1 c -0.4,1.1 -1.8,1.7 -3.6,1.7 0,1 -0.3,2 -0.5,2.5 -1,1.4 -12.6,9.4 -14.2,9.9 -0.2,0.1 -0.4,0.1 -0.6,0.1 -0.5,0 -1.1,-0.1 -1.7,-0.3 -0.5,1.7 -1.6,3 -2.8,3 -1.2,0 -2.3,-1.2 -2.8,-2.9 -0.7,0.3 -1.4,0.4 -2.1,0.4 -0.3,0 -0.5,0 -0.7,-0.1 -1.6,-0.5 -13.1,-8.6 -14.1,-10 -0.3,-0.4 -0.5,-1.2 -0.6,-2.1 -1.8,0 -3.3,-0.6 -3.6,-1.7 -0.4,-1.1 0.5,-2.4 1.9,-3.4 -0.8,-0.8 -1.2,-2 -1.2,-2.5 0,-1.7 4.4,-14.8 5.5,-16.1 0.3,-0.3 1.1,-0.9 2.1,-1.2 -0.5,-1.6 -0.4,-3 0.6,-3.8 0.9,-0.6 2.4,-0.4 3.8,0.6 0.6,-1 1.6,-1.7 2.1,-1.9 1.1,-0.3 5.8,-0.4 7.9,-0.4 3.1,0 8.7,0.1 9.7,0.5 0.5,0.2 1.3,0.8 1.9,1.7 1.5,-1 3,-1.4 3.9,-0.6 0.9,0.6 1.1,2 0.6,3.6 1.1,0.3 2,0.9 2.3,1.3 1,1.3 5.4,14.4 5.4,16.1 0,0.5 -0.4,1.4 -1,2.3 1.3,0.9 2.2,2.2 1.8,3.3 z m 64.7,17.6 -24.7,-5.2 v 2.3 h -3.7 -3.7 v -2.3 l -13.7,2.1 c -0.2,0 -0.3,0.1 -0.5,0.1 l -10.4,1.6 v -36.4 l 1.8,-0.5 v -6.1 l 3.6,2.6 c 2.5,1.9 4,2.3 4.8,2.3 1.2,0 2.1,-0.9 3.4,-2.5 0.3,-0.3 0.6,-0.7 0.9,-1 1.7,-1.8 3.6,-2.7 5.6,-2.7 2.4,0 5,1.4 8.2,4.1 3.2,-2.8 5.8,-4.1 8.2,-4.1 2.1,0 3.8,0.9 5.6,2.7 0.3,0.3 0.6,0.7 0.9,1 1.3,1.6 2.3,2.5 3.4,2.5 0.8,0 2.3,-0.4 4.8,-2.3 l 3.6,-2.6 v 6.1 l 1.9,0.5 z"
   id="path94" />

	<path
   class="st1"
   d="m 380.8,248.6 c 3.4,1.9 6.9,4.6 6.9,8.4 0,3.9 -3.3,5.6 -6.9,7.4 -1.8,0.9 -3.8,1.9 -6.1,3.5 -3.4,2.3 -14.4,10.5 -13.4,21.7 0.4,3.9 1.8,6 5.7,7.9 l -0.5,-5 c -0.3,-5 4.3,-9.2 10.7,-13.7 2.8,-1.9 6.2,-4.4 10.6,-7.9 24,-19.3 26.7,-44.3 19.4,-55.1 -1,-1.4 -2.4,-3.4 -3.8,-5.4 -2,21.8 -13.2,32.7 -22.6,38.2 z"
   id="path96" />

	<path
   class="st1"
   d="m 239.9,210.3 c -1.4,2 -2.8,4 -3.8,5.4 -7.3,10.7 -4.5,35.8 19.4,55.1 4.4,3.5 7.8,5.9 10.6,7.9 6.5,4.5 10.9,8.7 10.7,13.7 l -0.5,5 c 3.9,-1.9 5.4,-3.9 5.7,-7.9 1,-11.2 -10,-19.4 -13.4,-21.7 -2.3,-1.6 -4.3,-2.6 -6.1,-3.5 -3.6,-1.8 -6.9,-3.5 -6.9,-7.4 0,-3.8 3.6,-6.5 6.9,-8.4 -9.4,-5.4 -20.5,-16.3 -22.6,-38.2 z"
   id="path98" />

</g>
  </g>
  <style
     type="text/css"
     id="style10">
	.st0{fill:#FFCC00;}
	.st1{fill:#CC0000;}
</style>
</svg>
